<svg width="242" height="66" viewBox="0 0 242 66" fill="none" xmlns="http://www.w3.org/2000/svg">
<path d="M239.5 63C240.881 63 242 61.8807 242 60.5C242 59.1193 240.881 58 239.5 58C238.119 58 237 59.1193 237 60.5C237 61.8807 238.119 63 239.5 63Z" fill="#15BF9E"/>
<path d="M238 58.6446C197.667 15.1446 94.9 -45.7554 6.5 58.6446" stroke="#E6E6E6" stroke-dasharray="2 2"/>
<path d="M4.74192 55.1076L4.59763 60.915C4.5912 61.191 4.86912 61.4249 5.13991 61.3714L10.8374 60.2373C11.2097 60.1629 11.3314 59.6896 11.0409 59.4451L9.99964 58.5689L12.3364 55.7923C12.4978 55.6004 12.4732 55.3146 12.2814 55.1531L9.50476 52.8164C9.31292 52.655 9.02705 52.6796 8.8656 52.8714L6.52891 55.648L5.48769 54.7717C5.19719 54.5273 4.75165 54.728 4.74192 55.1076ZM7.35239 64.2683C7.30316 64.0213 7.06411 63.863 6.81867 63.9118L1.67732 64.9354L1.8078 59.6948C1.8132 59.4432 1.61495 59.2362 1.36537 59.2298C1.11491 59.224 0.906809 59.4217 0.900373 59.6722L0.756091 65.4797C0.749656 65.7556 1.0276 65.9895 1.29839 65.936L6.99585 64.802C7.24161 64.7529 7.4009 64.5141 7.35239 64.2683Z" fill="url(#paint0_linear_27:23)"/>
<defs>
<linearGradient id="paint0_linear_27:23" x1="10.8931" y1="53.9848" x2="0.923285" y2="65.8314" gradientUnits="userSpaceOnUse">
<stop stop-color="#00B59C"/>
<stop offset="1" stop-color="#9CFFAC"/>
</linearGradient>
</defs>
</svg>
