<?xml version="1.0" standalone="no"?>
<!DOCTYPE svg PUBLIC "-//W3C//DTD SVG 20010904//EN"
 "http://www.w3.org/TR/2001/REC-SVG-20010904/DTD/svg10.dtd">
<svg version="1.0" xmlns="http://www.w3.org/2000/svg"
 width="512.000000pt" height="512.000000pt" viewBox="0 0 512.000000 512.000000"
 preserveAspectRatio="xMidYMid meet">
<metadata>
Created by potrace 1.16, written by Peter Selinger 2001-2019
</metadata>
<g transform="translate(0.000000,512.000000) scale(0.100000,-0.100000)"
fill="#000000" stroke="none">
<path d="M2115 4044 l-760 -386 -675 -1156 c-371 -635 -676 -1161 -678 -1169
-3 -11 128 -13 755 -13 l758 0 683 1547 c375 850 681 1550 680 1554 -2 4 -345
-165 -763 -377z"/>
<path d="M3077 4144 c-8 -16 -184 -417 -392 -891 l-377 -862 541 -693 542
-693 -1065 -3 -1066 -2 0 -155 0 -155 1930 0 c1168 0 1930 4 1930 9 0 9 -2005
3448 -2020 3465 -5 4 -15 -5 -23 -20z"/>
</g>
</svg>
