<?xml version="1.0" encoding="iso-8859-1"?>
<!-- Generator: Adobe Illustrator 19.0.0, SVG Export Plug-In . SVG Version: 6.00 Build 0)  -->
<svg version="1.1" id="Layer_1" xmlns="http://www.w3.org/2000/svg" xmlns:xlink="http://www.w3.org/1999/xlink" x="0px" y="0px"
	 viewBox="0 0 512.001 512.001" style="enable-background:new 0 0 512.001 512.001;" xml:space="preserve">
<g>
	<path style="fill:#B3404A;" d="M252.389,506.27c-67.412,0-130.79-26.253-178.459-73.92C20.476,378.898-6.045,305.037,1.164,229.708
		c0.807-8.43,8.303-14.613,16.726-13.803c8.431,0.805,14.612,8.295,13.805,16.726c-6.335,66.183,16.964,131.072,63.921,178.03
		c41.875,41.877,97.551,64.938,156.772,64.938s114.897-23.062,156.772-64.938c35.687-35.686,57.626-80.985,63.444-130.997
		c7.887-67.804-15.237-134.339-63.443-182.543c-41.877-41.875-97.552-64.937-156.773-64.937c-59.22,0-114.895,23.062-156.77,64.938
		c-5.989,5.987-15.699,5.987-21.689,0c-5.989-5.989-5.989-15.699,0-21.689c47.669-47.667,111.047-73.92,178.459-73.92
		c67.413,0,130.792,26.253,178.459,73.92c54.873,54.873,81.197,130.605,72.221,207.774c-6.625,56.947-31.599,108.519-72.221,149.142
		C383.18,480.017,319.802,506.27,252.389,506.27z"/>
	<path style="fill:#B3404A;" d="M496.665,510.489c-3.924,0-7.85-1.498-10.844-4.492l-70.798-70.798
		c-5.988-5.988-5.988-15.699,0-21.689c5.989-5.987,15.699-5.987,21.689,0l70.798,70.798c5.988,5.988,5.988,15.699,0,21.689
		C504.515,508.992,500.589,510.489,496.665,510.489z"/>
</g>
<path style="fill:#F4B2B0;" d="M198.408,199.91c-1.82,16.992-2.808,35.134-2.808,53.982s0.988,36.991,2.808,53.982
	c16.992,1.82,35.134,2.808,53.982,2.808s36.991-0.988,53.982-2.808c1.82-16.992,2.808-35.134,2.808-53.982
	s-0.988-36.991-2.808-53.982c-16.992-1.82-35.134-2.808-53.982-2.808S215.399,198.089,198.408,199.91z"/>
<path style="fill:#B3404A;" d="M441.202,253.817c-0.021-52.986-22.511-103.849-61.715-139.558
	C344.67,82.544,299.533,65.078,252.39,65.078s-92.281,17.467-127.098,49.181c-39.216,35.721-61.71,86.607-61.715,139.613
	c0,0.006-0.002,0.014-0.002,0.02c0,0.031,0.002,0.061,0.002,0.092c0.026,52.981,22.516,103.837,61.715,139.542
	c34.781,31.68,79.858,49.14,126.946,49.178c0.051,0,0.103,0.003,0.152,0.003s0.103-0.003,0.152-0.003
	c47.086-0.038,92.165-17.498,126.946-49.178c6.261-5.703,6.714-15.401,1.011-21.663c-5.703-6.265-15.403-6.714-21.664-1.011
	c-17.778,16.193-38.78,27.92-61.408,34.631c3.374-6.814,6.633-14.796,9.695-24.15c6.72-20.528,11.615-45.02,14.472-71.649
	c0.008-0.058,0.02-0.115,0.026-0.175c0.029-0.275,0.054-0.555,0.083-0.831c0.172-1.63,0.334-3.266,0.491-4.91
	c0.086-0.909,0.167-1.82,0.248-2.733c0.138-1.553,0.278-3.107,0.402-4.674c0.092-1.144,0.17-2.294,0.255-3.443
	c0.153-2.115,0.297-4.237,0.426-6.373c0.103-1.685,0.202-3.371,0.29-5.065c0.055-1.096,0.101-2.201,0.15-3.302
	c0.072-1.626,0.141-3.253,0.198-4.886c0.037-1.06,0.072-2.122,0.103-3.185c0.009-0.293,0.02-0.586,0.028-0.879h101.575l0,0l0,0
	c8.47,0,15.335-6.867,15.335-15.335C441.204,253.866,441.202,253.841,441.202,253.817z M252.39,295.344
	c-13.526,0-26.894-0.523-39.895-1.56c-0.643-8.06-1.063-16.271-1.31-24.56h82.407c-0.245,8.29-0.667,16.501-1.31,24.56
	C279.284,294.821,265.914,295.344,252.39,295.344z M252.39,95.748c9.181,0,27.49,29.545,36.377,87.242
	c-4.283-0.29-8.599-0.526-12.939-0.713c-0.095-0.005-0.19-0.009-0.287-0.014c-2.285-0.097-4.576-0.179-6.875-0.248
	c-0.331-0.009-0.661-0.023-0.992-0.032c-2.099-0.058-4.203-0.103-6.312-0.136c-0.471-0.008-0.94-0.02-1.411-0.028
	c-2.515-0.034-5.036-0.055-7.562-0.055c-12.281,0-24.449,0.416-36.377,1.224C224.898,125.293,243.207,95.748,252.39,95.748z
	 M252.39,212.437c2.986,0,5.962,0.035,8.931,0.087c0.966,0.017,1.929,0.04,2.892,0.061c2.064,0.048,4.121,0.109,6.173,0.181
	c1.046,0.037,2.095,0.067,3.138,0.112c2.664,0.109,5.318,0.239,7.959,0.39c1.334,0.077,2.658,0.169,3.986,0.256
	c1.471,0.097,2.938,0.196,4.4,0.305c0.808,0.06,1.612,0.127,2.418,0.192c0.641,8.051,1.063,16.254,1.308,24.535h-82.41
	c0.245-8.289,0.667-16.498,1.31-24.56C225.501,212.962,238.869,212.437,252.39,212.437z M180.484,269.226
	c0.009,0.319,0.021,0.636,0.031,0.954c0.031,1.014,0.063,2.026,0.098,3.038c0.06,1.693,0.13,3.38,0.205,5.064
	c0.048,1.052,0.09,2.104,0.143,3.151c0.092,1.803,0.198,3.598,0.308,5.39c0.071,1.149,0.136,2.299,0.215,3.441
	c-33.03-5.087-56.836-13.254-71.143-21.04h70.143V269.226z M324.266,237.679c-0.031-1.064-0.066-2.127-0.103-3.19
	c-0.058-1.63-0.126-3.254-0.198-4.878c-0.049-1.104-0.095-2.21-0.15-3.309c-0.086-1.685-0.187-3.365-0.288-5.041
	c-0.074-1.231-0.146-2.464-0.227-3.69c12.727,1.938,24.715,4.397,35.604,7.347c15.865,4.297,27.516,9.092,35.704,13.636h-70.313
	C324.286,238.262,324.275,237.971,324.266,237.679z M403.925,208.775c-9.76-4.811-21.908-9.372-37.001-13.46
	c-14.173-3.838-29.973-6.918-46.759-9.166c-2.947-22.006-7.34-42.277-13.043-59.696c-3.062-9.356-6.321-17.338-9.695-24.152
	c22.629,6.711,43.631,18.438,61.408,34.632C380.29,156.476,395.765,181.441,403.925,208.775z M145.945,136.931
	c17.778-16.194,38.78-27.923,61.409-34.632c-3.375,6.814-6.633,14.797-9.695,24.153c-6.718,20.527-11.614,45.016-14.472,71.64
	c-0.008,0.063-0.021,0.123-0.028,0.186c-0.031,0.293-0.057,0.589-0.087,0.882c-0.167,1.598-0.328,3.204-0.482,4.817
	c-0.09,0.946-0.175,1.894-0.259,2.843c-0.135,1.523-0.271,3.044-0.394,4.578c-0.097,1.216-0.182,2.44-0.271,3.661
	c-0.143,1.974-0.278,3.952-0.399,5.943c-0.109,1.777-0.215,3.555-0.305,5.341c-0.054,1.052-0.097,2.11-0.144,3.167
	c-0.075,1.679-0.146,3.363-0.205,5.05c-0.035,1.014-0.069,2.029-0.098,3.046c-0.009,0.317-0.021,0.633-0.031,0.951H95.008
	C98.81,199.788,116.895,163.394,145.945,136.931z M100.834,298.943c6.806,3.369,14.777,6.62,24.117,9.678
	c17.412,5.7,37.673,10.092,59.67,13.04c2.947,21.997,7.34,42.258,13.038,59.67c3.063,9.355,6.32,17.337,9.694,24.15
	c-22.628-6.711-43.629-18.438-61.408-34.631C124.472,351.291,108.988,326.303,100.834,298.943z M252.39,412.033
	c-0.005,0-0.009,0-0.014,0c-9.186-0.029-27.48-29.57-36.362-87.237c1.084,0.074,2.175,0.138,3.265,0.204
	c1.851,0.113,3.705,0.224,5.568,0.317c1.054,0.054,2.113,0.097,3.171,0.144c1.665,0.075,3.332,0.144,5.006,0.204
	c1.041,0.037,2.084,0.071,3.13,0.101c1.802,0.054,3.608,0.097,5.416,0.13c0.896,0.017,1.79,0.038,2.688,0.052
	c2.705,0.04,5.415,0.066,8.131,0.066c12.284,0,24.454-0.414,36.377-1.224c-8.881,57.671-27.176,87.213-36.362,87.241
	C252.399,412.033,252.395,412.033,252.39,412.033z"/>
<g>
</g>
<g>
</g>
<g>
</g>
<g>
</g>
<g>
</g>
<g>
</g>
<g>
</g>
<g>
</g>
<g>
</g>
<g>
</g>
<g>
</g>
<g>
</g>
<g>
</g>
<g>
</g>
<g>
</g>
</svg>
