<?xml version="1.0" encoding="iso-8859-1"?>
<!-- Generator: Adobe Illustrator 19.0.0, SVG Export Plug-In . SVG Version: 6.00 Build 0)  -->
<svg version="1.1" id="Layer_1" xmlns="http://www.w3.org/2000/svg" xmlns:xlink="http://www.w3.org/1999/xlink" x="0px" y="0px"
	 viewBox="0 0 512 512" style="enable-background:new 0 0 512 512;" xml:space="preserve">
<circle style="fill:#0F7986;" cx="256" cy="256" r="256"/>
<path style="fill:#FED298;" d="M190.73,300.239c-22.299-12.968-59.277-40.839-59.277-40.839s-10.104,13.204-2.845,25.393
	c7.257,12.193,38.046,33.952,38.046,33.952s-0.144,9.458-9.957,2.374c-9.813-7.084-49.103-50.099-49.103-50.099
	s-20.769-62.826-25.128-72.894c-4.361-10.07-15.44-7.948-15.44-7.948s8.068,87.395,9.077,95.327
	c1.013,7.928,68.247,91.783,68.247,91.783l19.564,25.184l-18.913,65.299l79.689,9.297l1.646-93.017
	C235.757,350.186,213.032,313.204,190.73,300.239z"/>
<path style="fill:#FFFFFF;" d="M240.456,434.155l-88.039-18.248l-3.808,18.827l87.66,20.586L240.456,434.155L240.456,434.155z"/>
<path style="fill:#FAD24D;" d="M234.402,511.085l10.477-56.912l-97.106-22.355l-14.06,49.138
	C164.082,497.496,198.171,508.059,234.402,511.085L234.402,511.085z"/>
<path style="fill:#FED298;" d="M321.27,300.238c22.299-12.967,59.277-40.838,59.277-40.838s10.104,13.204,2.845,25.393
	c-7.257,12.193-38.046,33.951-38.046,33.951s0.144,9.459,9.956,2.376c9.815-7.085,49.105-50.101,49.105-50.101
	s20.769-62.826,25.128-72.894c4.361-10.071,15.44-7.949,15.44-7.949s-8.068,87.395-9.077,95.327
	c-1.014,7.928-68.247,91.784-68.247,91.784l-19.564,25.184L367,467.768l-79.689,9.297l-1.646-93.017
	C276.243,350.186,298.969,313.202,321.27,300.238L321.27,300.238z"/>
<path style="fill:#FFFFFF;" d="M271.544,434.155l88.039-18.248l3.808,18.828l-87.66,20.586L271.544,434.155L271.544,434.155z"/>
<path style="fill:#FAD24D;" d="M277.598,511.085l-10.477-56.912l97.106-22.356l14.06,49.139
	C347.919,497.496,313.831,508.059,277.598,511.085L277.598,511.085z"/>
<path style="fill:#15BDB2;" d="M256,27.873c67.89,0,122.924,55.034,122.924,122.924c0,67.887-55.034,122.923-122.924,122.923
	c-67.888,0-122.923-55.036-122.923-122.923C133.077,82.907,188.112,27.873,256,27.873z"/>
<path style="fill:#21D0C3;" d="M256,27.873c48.691,0,90.766,28.309,110.671,69.367c2.996,11.146,4.604,22.862,4.604,34.955
	c0,74.172-60.129,134.302-134.303,134.302c-11.039,0-21.762-1.341-32.025-3.853c-42.404-19.387-71.87-62.174-71.87-111.846
	C133.076,82.907,188.113,27.873,256,27.873L256,27.873z"/>
<path style="fill:#FFFFFF;" d="M332.801,54.822c22.856,18.317,39.034,44.623,44.283,74.69c-0.37-0.572-0.749-1.316-1.129-2.424
	c-2.401,0.787-2.479,0.85-5.313,1.323l-0.125,0.172c-1.127,1.607,0.057,0.925-1.923,2.6c-2.359,1.986-3.895,4.695-6.53,6.302
	c-0.317,2.807,0.234,3.437-0.473,6.778c-0.278,1.23-1.654,4.538-3.269,4.288c-0.512-0.094-2.677-5.454-3.188-6.934
	c-0.866-2.521-1.85-4.381-2.479-7.28c-0.353-1.547-0.592-4.506-0.945-5.547c-1.692,0.25-1.615,1.326-3.229,0.191
	c-1.14-0.821-0.629-1.323-1.259-2.553c-1.336-1.262-2.715-2.521-4.091-3.783c-1.064-0.344-5.157,0.252-6.89,0.064
	c-3.108-0.286-3.38-0.096-5.232-2.585c-3.269,0.161-2.993,1.386-6.181-1.355c-2.086-1.766-1.692-4.601-4.722-2.995
	c-0.116,2.585,1.142,3.156,2.284,4.351c0.824,0.916,1.849,1.547,2.281,2.773c0.041,0.034,0.239,1.198,0.278,1.354
	c2.95,0.193,3.659-1.226,5.272-2.423c1.576,1.479,0.039,1.734,2.323,2.897c1.808,0.916,1.456,0.379,2.635,1.86
	c0.592,1.985-4.052,7.375-5.588,8.352c-1.179,0.757-1.809,0.314-2.871,1.196c-1.573,1.326,0.197,1.137-2.557,2.146
	c-2.95,1.073-5.867,3.34-8.973,3.529c-0.67-1.829-1.339-3.686-2.006-5.546c-1.97-6.335-1.889-3.875-3.898-7.154
	c-0.945-1.42-0.551-2.332-1.181-3.594c-0.434-0.944-1.101-1.354-1.693-2.518c-0.904-1.797-1.965-4.602-4.051-4.319
	c-0.434,1.417,1.928,6.206,2.517,7.374c0.593,1.167,1.535,1.672,1.811,3.342c0.392,2.299-0.079,2.014,1.18,3.557
	c2.637,3.183-0.118,2.618,3.976,5.736c3.068,2.334,2.281,3.027,3.581,6.148c2.007,0.564,7.988-2.111,9.01-1.325
	c1.222,2.174-1.414,5.639-2.084,7.531c-2.203,6.335-6.061,6.242-9.012,11.093c-1.612,2.618-2.361,2.963-3.855,6.115
	c-1.694,3.56,3.423,13.424,0.353,17.554c-0.67,0.944-2.833,1.512-5.548,4.381c-2.873,3.118,0.078,2.582-1.026,7.782
	c-0.865,1.198-1.927,1.261-2.99,2.114c-0.392,1.227-0.078,2.202-0.748,3.717c-0.71,1.828-0.825,0.85-1.851,2.334
	c-0.748,1.164-0.667,1.636-1.534,2.71c-0.748,0.977-1.142,1.257-1.848,1.89c-3.425,3.152-10.786,3.245-11.414,2.804
	c-1.734-1.479-0.551-1.859-0.983-3.938c-0.421-1.829-1.391-3.359-2.201-4.771l-0.084-0.148c-0.392-0.691-0.749-1.355-0.945-1.986
	c-1.417-4.475-0.903-7.876-3.381-12.414c-3.11-5.865,1.73-8.92,1.532-12.228c-0.079-0.881-0.392-1.418-0.473-2.114
	c-0.59-3.654-0.943-6.932-3.383-9.802c-2.677-3.118-2.323-2.017-1.457-7.15c1.101-5.893-1.417-4.382-4.958-4.539
	c-1.734-5.357-5.118-2.745-8.501-1.166c-2.125,0.975-2.911-0.282-5.315,0.061c-5.353,0.725-1.14,3.027-8.305-2.646
	c-2.99-2.364-0.983-1.167-2.754-4.127c-0.591-1.073-2.401-2.491-3.229-3.563c-2.714-3.403,0.513-6.838,0.041-10.746
	c-0.828-7.248-2.007-0.946,2.045-9.707c2.127-4.663,5.353-4.695,6.18-6.778c0.709-1.856,0.234-3.183,1.574-4.882
	c1.18-1.386,2.872-1.105,3.542-3.279c0.943-2.678-0.866-3.023-2.833-3.09c-0.825-2.804-0.825-2.11-0.198-4.695
	c0.354-1.449,0.039-2.146,0.354-3.594c0.787-3.622,6.966-0.028,8.738-1.511c0.826-1.543,0.945-3.055,0-4.539
	c-0.985-1.479-2.281-1.291-2.95-2.709c1.495-1.007,0.391-0.126,1.692-0.411c1.534-0.344,1.336-0.787,3.146-1.132
	c1.615-0.317,2.641-1.797,4.213-2.805c2.244-1.449,1.179-2.745,3.897-3.184c4.368-0.758,1.534-0.631,2.009-4.698
	c0.665-0.252,1.295-0.538,1.926-0.819c1.378,1.797-0.352,1.073,1.299,2.268c0.432-0.252,0.944-0.502,1.417-0.754
	c-0.237-1.957-1.14-1.577-1.732-4.002c-2.166,0.345-2.951,2.174-4.683,1.511c-1.693-0.63-1.771-3.058-1.693-5.073
	c0.629-1.512,3.777-2.331,4.997-2.71c1.971-0.663,1.694-1.986,3.505-3.783c2.362-2.364,0.629,0.031,1.771-3.025
	c2.598-0.097,1.378-0.19,2.911-0.977l0.078-0.032l0.158-0.063c0.906-0.411,2.088-0.506,3.269-0.912
	c4.328-1.449,6.098-0.725,9.246,0.565c2.439,1.009,9.8,1.041,10.352,4.13c-1.771,1.856-3.463,0.502-6.021,0.662
	c0.471,2.393,0.669,2.393,2.833,3.055c0.354-1.135-0.158-0.691,0.432-1.418c0.71,0.157,1.418,0.282,2.124,0.41
	c0.711-2.427,1.536-2.079,3.938-2.364c-0.395-1.672-0.828-1.198,0.077-2.521c2.481,0.255,0.473,0.034,1.693,2.02
	c1.732-0.223,3.424-2.147,5.825-2.396c1.496-0.158,1.419,0.41,3.542,0.189c1.733-0.189,1.653-0.819,3.386-0.094
	c0.628-1.167,0-1.137,1.535-1.418c2.358-0.411,4.407,1.039,6.69,1.355c-1.691-2.081-3.306-1.673-1.22-5.138
	c2.637-0.536,2.872-0.157,4.015,1.829C332.205,55.373,332.481,55.009,332.801,54.822L332.801,54.822z M135.951,124.287
	c5.538-25.194,18.801-47.492,37.182-64.281c1.427,0.496,3.318,0.169,4.737,0.111c0.508-0.944,0.825-1.767,1.73-2.111
	c0.354-0.125,0.788-0.157,1.376-0.125c0.079,0.469,0.198,0.944,0.314,1.417c0,0.035,0.08,0.349,0.043,0.286
	c0.038-0.066,0.078,0.188,0.116,0.281c2.482-1.449,0.395-1.48,1.732-4.096c-2.086-0.411-1.809-0.161-3.11-1.484
	c1.263-1.385,3.699-1.859,5.51-1.732c-0.119,1.262-0.709,1.231-0.236,2.3c1.418-0.881,2.401-3.243,4.683-2.805
	c0.432,0.314,0.948,0.6,1.417,0.881c-1.181,1.105-2.95,1.167-4.485,1.796c-0.67,6.842,2.164,1.105,1.22,5.8
	c1.692-0.125,3.346-1.354,3.973-2.616c-0.627-0.818-1.534-0.818-2.045-1.796c0.397-1.262,1.245-2.215,2.439-2.783
	c0.809-0.385,1.779-0.59,2.873-0.59c12.515,0.094,6.57,0.663,10.431,2.428c0.864,0.376,2.398,0.568,2.911,1.323
	c0.787,1.198,0.039,2.33,1.296,3.277c1.102,0.818,1.262-0.032,2.717,1.797c-0.313,1.037-1.063,2.11-2.596,2.142
	c-2.125,0.032-0.866-1.418-3.151-1.198c0.041,2.141,2.167,2.963,0.197,4.127c-1.732,1.041-0.631-0.376-1.928,0.347
	c-0.039,0.032-0.159,0.094-0.198,0.126c-0.077,0.063-0.156,0.157-0.197,0.22c-0.236,0.255-0.434,0.474-0.629,0.696
	c-3.149-0.852-2.557-0.473-4.446-2.552c-0.709-0.787-0.825-0.978-2.086-0.881c-0.786,0.028-1.809,0.373-2.56-0.317
	c1.537-1.921,2.285-0.061,4.526-1.198c0.395-0.191,2.873-2.111,3.269-2.553c-0.67-1.511-0.08-0.254-1.062-1.23
	c-2.207-2.236-2.837-1.672-5.825-1.672c-1.401,1.613-2.449,3.604-3.975,4.479c-0.92,0.529-2.016,0.65-3.464,0.031
	c0.67,2.71,2.398,0.631,2.557,3.907c-1.14-0.222-1.733-0.789-2.912-0.378c-2.518,0.944-0.274,0.85-0.078,1.354
	c0,0.032,1.18,0.157,0,0.599c-1.301,0.47-0.197-0.254-2.716-1.734c0.353-0.631,0.71-1.289,1.062-1.954
	c-2.046,0.631-4.605,1.641-7.004,2.805c-2.717,1.354-5.276,2.901-6.81,4.319c-0.04,2.364,0.392,0.787,0.631,3.594
	c3.66,0.22,2.478,1.32,6.139,2.362c0.708,0.191,1.614,0.378,2.717,0.567c0,1.766-1.576,3.09-0.475,4.917
	c2.559,1.794,2.638-1.702,3.268-3.939c8.663-1.809,4.488-4.356,6.727-9.12c0.336-0.712,0.812-1.471,1.5-2.291
	c0.666,0.032,3.381,0.317,3.973,0.443c1.967,0.344,0.905,0.818,3.031,1.763c-0.04,1.704-0.905,3.907,1.614,3.5
	c1.927-0.344,1.497-1.86,3.856-2.24c1.061,2.491,0.786,3.563,1.259,6.555c5.669,2.208,3.149,4.003,2.045,8.133
	c0.711,0.344,1.456,0.662,2.206,0.975c-0.038,1.199-0.08,2.364-0.118,3.531c-0.117,0-6.062-1.295-6.456-1.417
	c0.905-2.587,2.559-2.616,3.624-5.263c-2.125,0.376-1.971,1.039-3.504,1.512c-1.375,0.41-2.44,0.125-3.895,0.316
	c-0.513,1.7-0.04-1.484,0.119,0.69c0.078,0.822,0.473,0.034-0.08,0.916c-1.968-0.916-1.297-3.058-4.959-1.072
	c0.826,0.378,1.652,0.724,2.519,1.072c-0.118,2.424-0.314,0.597-0.825,2.206c-1.263,4.128,3.423,1.575,4.643,1.355
	c-0.317,2.176-1.654,2.176-3.543,2.773c-2.084,0.63-2.715,1.483-4.368,1.862c0-2.587-0.391-0.411,0.748-2.208
	c-1.654,0.156-2.872,0.912-4.446,1.577l-0.157,0.06c-2.023,0.824-2.329,0.946-2.559,3.53c-1.732,0.534-3.738,1.137-4.958,2.397
	c-1.22,1.164-2.44,2.329-3.624,3.464c-0.117,0.094-0.197,0.189-0.272,0.252c0.432,3.247,0,3.309-1.97,4.574
	c-1.654,1.069-2.205,1.037-3.739,2.393c-4.917,4.413-2.557,2.361-2.285,9.959c-1.022-0.313-2.006-0.663-2.948-1.007
	c-0.75-5.044,0.272-3.372-3.779-4.538c-4.368-1.262-3.781,0.88-5.59,1.261c-2.006,0.44-2.992-1.828-5.904,0.063
	c-1.613,1.101-3.147,1.825-3.541,3.779c-0.473,2.365-1.535,4.096-1.378,6.716c0.277,7.091,6.73,7.499,8.384,4.191
	c1.101-2.205,0.828-3.403,4.408-2.834c0.354,1.89-0.197,3.277-0.671,4.727c-0.313,0.85-1.18,2.393-0.747,3.562
	c2.559,1.039,2.636-0.916,6.021,1.101c0.237,3.371-1.534,7.154,1.062,9.108c2.006,1.479,2.125,0.156,3.895-0.157
	c1.971-0.345,1.615,0.88,3.426,1.166c1.023-1.262,0.59-0.473,1.261-2.019c1.18-2.676,1.495-1.418,4.29-3.054
	c0.273-0.158,0.509-0.317,0.787-0.506c0.313,0.662,0.669,1.291,0.981,1.922c2.048-2.427,2.285-0.064,4.646,0.6
	c1.016,0.278,1.74,0.378,2.298,0.384c1.717,0.026,1.892-0.808,4.236,0.022c0.275,0.129,0.631,0.223,0.946,0.317
	c0.04,0,0.156,0.063,0.156,0.125c0.041,0.032,0.158,0.126,0.197,0.161c0.392,0.438,0.435,0.881,0.749,1.354
	c1.615,1.543,3.229,3.09,4.803,4.602c3.107,1.23,3.107-1.073,6.651,2.361c1.495,1.418,0.825,1.389,1.653,3.215
	c0.12,0.286,0.353,0.568,0.512,0.917c0.314,0.85,0.67,1.668,1.026,2.486c1.612,2.115,3.816,0.79,6.059,2.964
	c1.297,1.261,0.317,0.88,3.188,1.386c4.448,0.724,2.719,0.316,6.104,2.869c1.296,0.944,1.612,0.408,2.831,1.227
	c1.693,2.364,1.259,4.917-0.156,6.997c-4.369,6.367-2.873,5.326-3.071,10.369c-0.159,2.898-0.984,8.886-3.702,9.61
	c-9.878,2.775-4.133,4.699-6.729,9.581c-0.749,1.389-1.3,1.736-1.773,2.838c-1.966,4.598-0.59,6.144-6.414,5.106
	c0.553,0.975,0.197,0.313,0.75,1.194c1.73,2.68,2.007,4.699-1.536,5.358c-2.951,0.568-1.693,0-1.968,3.277
	c-1.142,0.474-1.653,0-2.401,0.757c1.023,1.89,0.079,0.316,1.811,1.388c-0.316,1.039-0.553,2.049-0.827,3.055
	c-0.667,2.459-0.865,0.193-1.101,3.058c1.023,0.47,1.732,0.377,2.635,1.609c-0.117,0.944-1.061,3.528-1.336,5.008
	c1.457,2.177,2.638,4.507,5.748,4.731c-0.041,1.824,0.392,1.638-1.181,2.013c-1.339,0.317-4.172-0.944-5.356-1.574
	c-2.045-1.105-3.936-2.553-5.312-4.634c-0.786-1.167-0.471-0.599-1.3-1.7c-1.496-1.922-0.903-2.807-1.336-4.1
	c-0.237-0.756-1.456-1.574-0.945-4.032c0.119-0.693,1.222-4.002-0.116-3.435c-1.34,0.538,1.021,0.314-0.828,1.199
	c-0.434-1.199-0.786-2.963-1.023-4.444c-0.473-2.491-1.062-2.585-1.339-4.096c-0.59-3.501,0.906-3.88-0.749-9.711
	c-1.086-3.858-0.65-12.991-1.796-17.676c-0.183-0.747-0.406-1.38-0.682-1.862c-1.062-1.764-3.661-2.582-5.746-4.002
	c-0.119-0.028-0.197-0.063-0.236-0.125c-2.873-2.018-5.59-9.928-7.874-12.889c-1.061-1.42-1.731-0.789-2.203-3.026
	c-0.51-2.049,0.275-1.7,0.945-3.406c-3.502-6.426,4.526-6.333,2.873-14.055c-0.353-1.417-1.375-3.402-2.244-4.03
	c-1.654,0.725-0.866,1.133-1.734,2.519c-1.336-0.756-2.676-1.515-3.973-2.268c-4.055-3.907-1.89-1.073-3.029-3.626
	c-2.44-5.357-4.764-2.361-7.676-5.008c-1.3-1.103-1.537-2.838-3.7-2.521c-3.264,0.438-1.454,0.944-4.84-0.633
	c-2.873-1.355-5.865-2.929-7.873-4.759C137.696,127.451,138.862,127.818,135.951,124.287L135.951,124.287z M174.486,58.796
	c0.745-0.66,1.497-1.31,2.259-1.953l0.061,0.124c0.156,0.252,0.274,0.252,0.434,0.913C175.247,58.366,175.249,58.696,174.486,58.796
	z M279.685,95.342c1.089,0.696,2.423,1.226,3.229,1.931c1.023,2.805-0.274,1.45,1.732,4.382c1.142,1.574,0.905,2.709,2.085,3.591
	c2.168-0.282,0.278,0.349,1.614-0.975c0.237-0.253,0.906-1.042,1.101-1.355c-0.706-1.072-1.14-1.167-1.769-2.271
	c2.437-3.244,3.502-1.386,4.091,0.76c1.537,5.955,3.895,4.221,5.867,3.936c2.006-0.281,0.272,0.066,2.084,0.536
	c1.732,0.442,0.903,0,2.124-0.313c4.132-1.01,0.946,6.997,0.514,7.879c-2.244,0.281-1.81-0.221-3.426-0.379
	c-3.267-0.345,0.197,1.957-7.515-0.568c-7.401-2.361-5.825-2.898-7.362,2.24c-1.692-0.126-1.612-0.442-3.185-0.976
	c-0.601-0.229-0.948-0.351-1.184-0.419l-0.078-0.026c-0.629-0.22,0-0.027-1.297-1.257c-1.142-1.073-3.936-1.323-5.905-2.365
	c0-1.7,1.495-3.118-0.314-5.137c-0.59-0.157-8.973,0.193-10.31,0.474c-2.715,0.568-3.19,2.866-6.928,2.364
	c-2.046-0.285-1.336-0.094-1.85-1.291c0.67-0.662,0-0.317,1.145-0.725c0.431-0.157,0.59-0.094,1.023-0.157
	c6.059-0.916,2.949-3.973,6.729-6.903c3.149-2.522,0.67,0.031,2.401-3.027c2.125-0.188,1.85,0.85,3.66-0.032
	c1.498-0.756,1.023-1.417,3.149-1.483c1.889,1.894,1.495,3.027,4.566,4.475c1.22,0.571,1.966,0.884,2.754,1.926
	c1.417,2.017,0.197,1.354,0.751,2.741c0.117-0.063,0.271-0.129,0.43-0.189l0.078-0.038c1.655-0.789-0.826-1.041,1.85-3.399
	c-0.785-0.567-1.356-0.965-1.85-1.249L279.607,98c-2.085-1.226-1.259-0.094-3.934-3.433c-0.71-0.948-0.906-1.008-0.865-2.459
	c1.926-0.345,2.283,1.041,4.014,2.584c0.236,0.223,0.51,0.411,0.786,0.599L279.685,95.342L279.685,95.342z M321.718,180.188
	c-1.728,0.881-1.967,2.901-3.266,4.034c-1.417,1.291-3.308,0.697-3.858,3.09c-0.708,2.992,1.183,2.079-0.905,5.987
	c-0.747,1.449-0.786,5.072,0.356,6.147c3.423,3.307,5.275-5.043,6.06-7.66c0.591-1.859,1.142-3.97,1.772-5.704
	C322.507,184.222,323.41,182.584,321.718,180.188z M316.052,92.262c0.274,3.847,2.557,5.328,4.174,7.09
	c-0.198,1.829-0.631,1.355-0.592,3.908c1.928,1.389,3.342,2.236,5.864,1.547c0.353-3.09-0.63-2.934-1.573-5.044
	c0.156-0.254,0.588-0.567,0.667-0.631c0.709-0.944,0.356,0.377,0.709-1.23c-1.848-0.597-4.842-2.489-5.074-4.976
	c0.903-0.725,0.628-0.285,1.295-0.725c1.456-0.946,0.356,0.501,1.22-1.105c-0.745-1.449-1.574-1.702-3.383-0.977
	C318.572,90.435,316.484,91.916,316.052,92.262L316.052,92.262z M299.954,93.271c-1.22-1.7-1.142-2.552-3.503-2.616
	c-0.943,1.01-2.045,2.522-2.558,4.065c-0.786,2.332-0.236,0.724-0.157,3.247c-0.04,0.094,0,0.222,0,0.316
	c-0.04,1.512-0.395-0.285-0.159,1.105c1.85-0.379,0.434-0.349,1.811-0.79c1.299-0.442,5.275-1.64,6.416-1.354
	c2.714,0.631,4.998,2.776,8.068,0.631c-0.159-2.742-3.465-3.783-5.747-4.98c0.118-2.519,0.786-0.534,0.627-2.961
	c-0.786-0.032-1.259-0.157-2.006,0.157c-1.771,0.787-0.787,1.009-0.787,1.291c0.079,1.354,1.772-0.282-0.038,1.389
	C301.411,93.208,300.583,93.208,299.954,93.271L299.954,93.271z M253.984,74.173c-0.076,4.413,1.456,2.929,2.912,5.106
	c-0.667,1.86-0.786,0.411-1.532,2.33c-0.671,1.609,0.157,0.161-0.278,2.963c1.144,0.064,2.832-0.344,4.331-0.474
	c2.127-0.188,2.086-0.378,2.833-2.552c-1.18-1.449-2.361-2.898-3.581-4.348c-1.537-2.334,0-0.729-0.473-2.682
	c-0.353-0.695-0.67-1.382-0.984-2.079C255.167,73.136,255.364,72.945,253.984,74.173L253.984,74.173z"/>
<g>
	<path style="fill:#FEFEFE;" d="M366.783,269.33l12.575-9.396l1.834,4.826l-10.639,8.6L366.783,269.33L366.783,269.33z"/>
	<path style="fill:#FEFEFE;" d="M145.418,269.792l-12.428-9.588l-1.908,4.798l10.505,8.762L145.418,269.792z"/>
</g>
<g>
	<path style="fill:#F0B97D;" d="M110.312,226.717l3.534,51.091l-0.007-0.007c-3.81-4.114-6.245-6.782-6.245-6.782
		s-6.243-18.882-12.601-37.603L94.64,218.14C94.507,212.442,109.454,209.954,110.312,226.717L110.312,226.717z"/>
	<path style="fill:#F0B97D;" d="M401.679,226.717l-3.534,51.091l0.007-0.007c3.81-4.114,6.245-6.782,6.245-6.782
		s6.243-18.882,12.601-37.603l0.352-15.277C417.484,212.442,402.537,209.954,401.679,226.717L401.679,226.717z"/>
</g>
<g>
</g>
<g>
</g>
<g>
</g>
<g>
</g>
<g>
</g>
<g>
</g>
<g>
</g>
<g>
</g>
<g>
</g>
<g>
</g>
<g>
</g>
<g>
</g>
<g>
</g>
<g>
</g>
<g>
</g>
</svg>
