<?xml version="1.0" encoding="UTF-8"?>
<svg xmlns="http://www.w3.org/2000/svg" xmlns:xlink="http://www.w3.org/1999/xlink" width="356.88pt" height="32.78pt" viewBox="0 0 356.88 32.78" version="1.1">
<defs>
<clipPath id="clip1">
  <path d="M 201 6 L 224 6 L 224 32.78125 L 201 32.78125 Z M 201 6 "/>
</clipPath>
<clipPath id="clip2">
  <path d="M 347 17 L 356.878906 17 L 356.878906 28 L 347 28 Z M 347 17 "/>
</clipPath>
</defs>
<g id="surface1">
<path style=" stroke:none;fill-rule:nonzero;fill:rgb(25.099182%,15.699768%,52.198792%);fill-opacity:1;" d="M 20.09375 14.582031 L 20.09375 14.511719 C 20.09375 10.816406 17.484375 7.667969 13.613281 7.667969 C 9.738281 7.667969 7.167969 10.78125 7.167969 14.4375 L 7.167969 14.511719 C 7.167969 18.167969 9.8125 21.351563 13.683594 21.351563 C 17.523438 21.351563 20.09375 18.238281 20.09375 14.582031 M 0 14.582031 L 0 14.511719 C 0 7.234375 5.863281 1.332031 13.683594 1.332031 C 21.503906 1.332031 27.296875 7.160156 27.296875 14.4375 L 27.296875 14.511719 C 27.296875 21.785156 21.429688 27.6875 13.613281 27.6875 C 5.792969 27.6875 0 21.859375 0 14.582031 "/>
<path style=" stroke:none;fill-rule:nonzero;fill:rgb(25.099182%,15.699768%,52.198792%);fill-opacity:1;" d="M 30.738281 7.597656 L 36.070313 7.597656 C 36.28125 7.597656 36.457031 7.769531 36.457031 7.984375 L 36.457031 10.347656 C 37.722656 8.71875 39.53125 7.160156 42.320313 7.160156 C 46.484375 7.160156 48.980469 9.914063 48.980469 14.367188 L 48.980469 26.792969 C 48.980469 27.007813 48.808594 27.179688 48.59375 27.179688 L 45.238281 27.179688 C 43.527344 27.179688 42.140625 25.792969 42.140625 24.082031 L 42.140625 16.574219 C 42.140625 14.402344 41.015625 13.242188 39.351563 13.242188 C 37.6875 13.242188 36.457031 14.402344 36.457031 16.574219 L 36.457031 26.792969 C 36.457031 27.007813 36.28125 27.179688 36.070313 27.179688 L 29.964844 27.179688 C 29.75 27.179688 29.578125 27.007813 29.578125 26.792969 L 29.578125 8.757813 C 29.578125 8.117188 30.097656 7.597656 30.738281 7.597656 "/>
<path style=" stroke:none;fill-rule:nonzero;fill:rgb(25.099182%,15.699768%,52.198792%);fill-opacity:1;" d="M 64.382813 15.777344 C 64.128906 13.605469 62.824219 12.230469 60.945313 12.230469 C 59.132813 12.230469 57.902344 13.605469 57.539063 15.777344 Z M 51.058594 17.476563 L 51.058594 17.40625 C 51.0625 11.683594 55.152344 7.160156 60.945313 7.160156 C 67.675781 7.160156 70.789063 12.121094 70.789063 17.878906 C 70.789063 18.257813 70.789063 18.691406 70.765625 19.105469 C 70.757813 19.210938 70.671875 19.289063 70.570313 19.289063 L 57.648438 19.289063 C 58.191406 21.425781 59.746094 22.507813 61.882813 22.511719 C 63.191406 22.511719 64.253906 22.132813 65.335938 21.300781 C 65.898438 20.867188 66.691406 20.902344 67.234375 21.355469 L 69.929688 23.585938 C 69.984375 23.632813 69.992188 23.714844 69.949219 23.769531 C 68.070313 26.101563 65.375 27.652344 61.558594 27.652344 C 55.402344 27.648438 51.058594 23.523438 51.058594 17.476563 "/>
<path style=" stroke:none;fill-rule:nonzero;fill:rgb(25.099182%,15.699768%,52.198792%);fill-opacity:1;" d="M 181.089844 7.59375 L 186.417969 7.59375 C 186.632813 7.59375 186.804688 7.769531 186.804688 7.980469 L 186.804688 10.347656 C 188.070313 8.71875 189.882813 7.160156 192.671875 7.160156 C 196.832031 7.160156 199.332031 9.910156 199.332031 14.363281 L 199.332031 26.792969 C 199.332031 27.003906 199.15625 27.179688 198.941406 27.179688 L 195.589844 27.179688 C 193.878906 27.179688 192.488281 25.792969 192.488281 24.082031 L 192.488281 16.574219 C 192.488281 14.402344 191.367188 13.242188 189.703125 13.242188 C 188.035156 13.242188 186.804688 14.402344 186.804688 16.574219 L 186.804688 26.792969 C 186.804688 27.003906 186.632813 27.179688 186.417969 27.179688 L 180.316406 27.179688 C 180.101563 27.179688 179.925781 27.003906 179.925781 26.792969 L 179.925781 8.757813 C 179.925781 8.117188 180.445313 7.59375 181.089844 7.59375 "/>
<path style=" stroke:none;fill-rule:nonzero;fill:rgb(25.099182%,15.699768%,52.198792%);fill-opacity:1;" d="M 146.957031 27.199219 L 140.851563 27.199219 C 140.640625 27.199219 140.464844 27.023438 140.464844 26.8125 L 140.464844 24.449219 C 139.199219 26.078125 137.390625 27.632813 134.601563 27.632813 C 130.4375 27.632813 127.9375 24.882813 127.9375 20.429688 L 127.9375 8.773438 C 127.9375 8.132813 128.460938 7.613281 129.101563 7.613281 L 131.683594 7.613281 C 133.394531 7.613281 134.78125 9 134.78125 10.710938 L 134.78125 18.21875 C 134.78125 20.394531 135.90625 21.550781 137.570313 21.550781 C 139.234375 21.550781 140.464844 20.394531 140.464844 18.21875 L 140.464844 8.773438 C 140.464844 8.132813 140.984375 7.613281 141.628906 7.613281 L 146.949219 7.613281 C 147.164063 7.613281 147.34375 7.792969 147.34375 8.011719 L 147.34375 26.8125 C 147.34375 27.023438 147.171875 27.199219 146.957031 27.199219 "/>
<path style=" stroke:none;fill-rule:nonzero;fill:rgb(25.099182%,15.699768%,52.198792%);fill-opacity:1;" d="M 118.933594 17.476563 L 118.933594 17.40625 C 118.933594 14.980469 117.15625 12.953125 114.730469 12.953125 C 112.234375 12.953125 110.640625 14.945313 110.640625 17.332031 L 110.640625 17.40625 C 110.640625 19.792969 112.378906 21.820313 114.804688 21.820313 C 117.304688 21.820313 118.933594 19.832031 118.933594 17.476563 M 103.980469 17.476563 L 103.980469 17.40625 C 103.980469 11.832031 108.542969 7.160156 114.804688 7.160156 C 121.066406 7.160156 125.59375 11.757813 125.59375 17.332031 L 125.59375 17.40625 C 125.59375 22.980469 121.03125 27.648438 114.730469 27.648438 C 108.503906 27.648438 103.980469 23.050781 103.980469 17.476563 "/>
<path style=" stroke:none;fill-rule:nonzero;fill:rgb(25.099182%,15.699768%,52.198792%);fill-opacity:1;" d="M 149.953125 24.367188 L 151.722656 21.527344 C 152.050781 21.003906 152.730469 20.828125 153.269531 21.128906 C 155.234375 22.234375 157.277344 22.800781 159.023438 22.800781 C 160.21875 22.800781 160.796875 22.4375 160.796875 21.75 L 160.796875 21.675781 C 160.796875 20.882813 159.675781 20.554688 157.613281 19.976563 C 153.738281 18.960938 150.660156 17.660156 150.660156 13.75 L 150.660156 13.675781 C 150.660156 9.511719 153.992188 7.199219 158.515625 7.199219 C 161.246094 7.199219 164.074219 7.957031 166.277344 9.285156 C 166.453125 9.390625 166.511719 9.621094 166.414063 9.800781 L 164.78125 12.8125 C 164.484375 13.363281 163.808594 13.574219 163.25 13.300781 C 161.515625 12.460938 159.75 11.976563 158.445313 11.976563 C 157.394531 11.976563 156.851563 12.375 156.851563 12.953125 L 156.851563 13.023438 C 156.851563 13.785156 158.011719 14.148438 160.039063 14.761719 C 163.910156 15.847656 166.988281 17.1875 166.988281 20.988281 L 166.988281 21.0625 C 166.988281 25.371094 163.765625 27.613281 158.988281 27.613281 C 155.816406 27.613281 152.679688 26.707031 150.058594 24.894531 C 149.890625 24.777344 149.84375 24.542969 149.953125 24.367188 "/>
<path style=" stroke:none;fill-rule:nonzero;fill:rgb(25.099182%,15.699768%,52.198792%);fill-opacity:1;" d="M 172.230469 0 L 176.070313 0 C 176.28125 0 176.457031 0.175781 176.457031 0.386719 L 176.457031 2.164063 C 176.457031 3.769531 175.15625 5.070313 173.550781 5.070313 L 169.835938 5.070313 C 169.554688 5.070313 169.324219 4.839844 169.324219 4.558594 L 169.324219 2.90625 C 169.324219 1.300781 170.625 0 172.230469 0 "/>
<path style=" stroke:none;fill-rule:nonzero;fill:rgb(25.099182%,15.699768%,52.198792%);fill-opacity:1;" d="M 170.632813 7.59375 L 175.921875 7.59375 C 176.136719 7.59375 176.3125 7.769531 176.3125 7.980469 L 176.3125 26.792969 C 176.3125 27.003906 176.136719 27.179688 175.921875 27.179688 L 172.566406 27.179688 C 170.855469 27.179688 169.46875 25.792969 169.46875 24.082031 L 169.46875 8.757813 C 169.46875 8.117188 169.988281 7.59375 170.632813 7.59375 "/>
<g clip-path="url(#clip1)" clip-rule="nonzero">
<path style=" stroke:none;fill-rule:nonzero;fill:rgb(25.099182%,15.699768%,52.198792%);fill-opacity:1;" d="M 216.691406 16.089844 L 216.691406 16.019531 C 216.691406 13.847656 214.988281 12.21875 212.671875 12.21875 C 210.320313 12.21875 208.652344 13.847656 208.652344 16.054688 L 208.652344 16.128906 C 208.652344 18.300781 210.320313 19.890625 212.671875 19.890625 C 215.023438 19.890625 216.691406 18.261719 216.691406 16.089844 M 202.667969 30.1875 L 204.191406 27.039063 C 204.46875 26.464844 205.160156 26.230469 205.738281 26.503906 C 207.507813 27.339844 209.339844 27.820313 211.550781 27.820313 C 214.953125 27.820313 216.652344 26.117188 216.652344 23.007813 L 216.652344 22.246094 C 215.277344 23.839844 213.46875 25.175781 210.644531 25.175781 C 205.828125 25.175781 201.917969 21.703125 201.917969 16.089844 L 201.917969 16.019531 C 201.917969 10.371094 205.902344 6.894531 210.390625 6.894531 C 213.359375 6.894531 215.097656 8.089844 216.546875 9.648438 L 216.546875 7.71875 C 216.546875 7.503906 216.71875 7.332031 216.933594 7.332031 L 222.261719 7.332031 C 222.902344 7.332031 223.421875 7.851563 223.421875 8.492188 L 223.421875 22.207031 C 223.421875 25.792969 222.628906 28.328125 220.890625 30.027344 C 219.117188 31.839844 216.363281 32.777344 212.273438 32.777344 C 208.660156 32.777344 205.582031 32.046875 202.847656 30.707031 C 202.652344 30.613281 202.574219 30.378906 202.667969 30.1875 "/>
</g>
<path style=" stroke:none;fill-rule:nonzero;fill:rgb(25.099182%,15.699768%,52.198792%);fill-opacity:1;" d="M 81.847656 1.839844 L 85.382813 1.839844 C 85.597656 1.839844 85.773438 2.015625 85.773438 2.230469 L 85.773438 11.324219 L 94.785156 11.324219 L 94.785156 3 C 94.785156 2.359375 95.304688 1.839844 95.949219 1.839844 L 101.421875 1.839844 C 101.636719 1.839844 101.808594 2.011719 101.808594 2.226563 L 101.808594 24.082031 C 101.808594 25.792969 100.421875 27.179688 98.710938 27.179688 L 95.949219 27.179688 C 95.304688 27.179688 94.785156 26.660156 94.785156 26.019531 L 94.785156 17.550781 L 85.773438 17.550781 L 85.773438 26.792969 C 85.773438 27.007813 85.597656 27.179688 85.382813 27.179688 L 79.910156 27.179688 C 79.269531 27.179688 78.75 26.660156 78.75 26.019531 L 78.75 4.9375 C 78.75 3.226563 80.136719 1.839844 81.847656 1.839844 "/>
<path style=" stroke:none;fill-rule:nonzero;fill:rgb(32.499695%,32.199097%,28.999329%);fill-opacity:1;" d="M 286.472656 16.316406 L 285.714844 16.316406 L 285.714844 20.617188 L 286.691406 20.617188 C 288.117188 20.617188 289 19.855469 289 18.40625 C 289 16.863281 287.941406 16.316406 286.472656 16.316406 M 292.820313 27.554688 L 290.527344 27.554688 C 290.136719 27.554688 289.859375 27.453125 289.644531 27.121094 L 286.925781 22.953125 L 285.714844 22.953125 L 285.714844 27.003906 C 285.714844 27.316406 285.574219 27.554688 285.183594 27.554688 L 283.148438 27.554688 C 282.753906 27.554688 282.597656 27.375 282.597656 26.984375 L 282.597656 14.632813 C 282.597656 14.101563 282.71875 13.964844 283.246094 13.964844 L 286.21875 13.964844 C 287.882813 13.964844 289.882813 14.101563 291.074219 15.429688 C 291.78125 16.214844 292.132813 17.292969 292.132813 18.351563 C 292.132813 20.089844 291.390625 21.539063 289.804688 22.339844 L 289.804688 22.386719 L 293.015625 26.960938 C 293.09375 27.082031 293.128906 27.199219 293.128906 27.296875 C 293.128906 27.472656 292.976563 27.554688 292.820313 27.554688 "/>
<path style=" stroke:none;fill-rule:nonzero;fill:rgb(32.499695%,32.199097%,28.999329%);fill-opacity:1;" d="M 296.617188 27.554688 L 294.855469 27.554688 C 294.441406 27.554688 294.25 27.417969 294.25 26.984375 L 294.25 18.527344 C 294.25 18.132813 294.503906 18.015625 294.855469 18.015625 L 296.617188 18.015625 C 296.988281 18.015625 297.183594 18.113281 297.183594 18.527344 L 297.183594 26.984375 C 297.183594 27.375 297.007813 27.554688 296.617188 27.554688 M 295.695313 16.878906 C 294.953125 16.878906 294.109375 16.351563 294.109375 15.414063 C 294.109375 14.457031 294.890625 13.90625 295.695313 13.90625 C 296.476563 13.90625 297.261719 14.457031 297.261719 15.394531 C 297.261719 16.328125 296.441406 16.878906 295.695313 16.878906 "/>
<path style=" stroke:none;fill-rule:nonzero;fill:rgb(32.499695%,32.199097%,28.999329%);fill-opacity:1;" d="M 307.699219 18.582031 L 304.15625 27.144531 C 304.015625 27.492188 303.863281 27.554688 303.488281 27.554688 L 302.332031 27.554688 C 302.003906 27.554688 301.785156 27.492188 301.648438 27.15625 L 298.140625 18.488281 C 298.125 18.40625 298.101563 18.351563 298.101563 18.285156 C 298.101563 18.132813 298.21875 18.015625 298.515625 18.015625 L 300.765625 18.015625 C 301.140625 18.015625 301.316406 18.195313 301.410156 18.507813 L 302.644531 22.480469 C 302.785156 22.890625 302.9375 23.480469 303.035156 23.890625 L 303.054688 23.890625 C 303.15625 23.539063 303.3125 22.957031 303.449219 22.519531 L 304.757813 18.507813 C 304.898438 18.113281 305.054688 18.015625 305.488281 18.015625 L 307.289063 18.015625 C 307.582031 18.015625 307.757813 18.132813 307.757813 18.351563 C 307.757813 18.40625 307.738281 18.507813 307.699219 18.582031 "/>
<path style=" stroke:none;fill-rule:nonzero;fill:rgb(32.499695%,32.199097%,28.999329%);fill-opacity:1;" d="M 312.320313 19.996094 C 311.339844 19.996094 310.691406 20.773438 310.554688 21.699219 L 313.824219 21.699219 C 313.824219 20.859375 313.335938 19.996094 312.320313 19.996094 M 315.996094 23.558594 L 310.515625 23.558594 C 310.753906 24.792969 311.847656 25.476563 313.039063 25.476563 C 313.902344 25.476563 314.726563 25.28125 315.507813 24.96875 C 315.585938 24.929688 315.664063 24.90625 315.746094 24.90625 C 315.921875 24.90625 316.015625 25.027344 316.054688 25.183594 C 316.132813 25.515625 316.429688 26.414063 316.429688 26.710938 C 316.429688 26.960938 316.253906 27.042969 316.054688 27.144531 C 315.019531 27.609375 313.648438 27.804688 312.511719 27.804688 C 309.398438 27.804688 307.421875 25.886719 307.421875 22.757813 C 307.421875 19.722656 309.476563 17.722656 312.492188 17.722656 C 313.746094 17.722656 314.800781 18.195313 315.53125 18.972656 C 316.507813 20.015625 316.703125 21.363281 316.703125 22.734375 L 316.703125 22.992188 C 316.703125 23.457031 316.484375 23.558594 315.996094 23.558594 "/>
<path style=" stroke:none;fill-rule:nonzero;fill:rgb(32.499695%,32.199097%,28.999329%);fill-opacity:1;" d="M 323.828125 18.289063 L 323.535156 20.136719 C 323.496094 20.347656 323.394531 20.445313 323.226563 20.445313 L 323.125 20.445313 C 322.96875 20.40625 322.773438 20.382813 322.597656 20.382813 C 321.949219 20.382813 321.285156 20.660156 320.796875 21.148438 L 320.796875 27.003906 C 320.796875 27.351563 320.640625 27.554688 320.246094 27.554688 L 318.410156 27.554688 C 318.054688 27.554688 317.855469 27.375 317.855469 27.003906 L 317.855469 18.582031 C 317.855469 18.113281 318.09375 18.015625 318.425781 18.015625 L 320.015625 18.015625 C 320.382813 18.015625 320.558594 18.113281 320.582031 18.40625 L 320.617188 18.996094 C 321.324219 18.152344 321.910156 17.738281 323.066406 17.738281 C 323.226563 17.738281 323.4375 17.777344 323.617188 17.820313 C 323.769531 17.855469 323.828125 17.941406 323.851563 18.078125 L 323.851563 18.113281 C 323.851563 18.175781 323.851563 18.214844 323.828125 18.289063 "/>
<path style=" stroke:none;fill-rule:nonzero;fill:rgb(32.499695%,32.199097%,28.999329%);fill-opacity:1;" d="M 327.433594 27.804688 C 326.390625 27.804688 325.238281 27.527344 324.160156 27.082031 C 323.949219 27.003906 323.886719 26.867188 323.886719 26.730469 C 323.886719 26.652344 323.90625 26.574219 323.925781 26.492188 L 324.316406 25.261719 C 324.398438 25.003906 324.476563 24.910156 324.613281 24.910156 C 324.691406 24.910156 324.789063 24.929688 324.925781 24.984375 C 325.886719 25.378906 326.804688 25.597656 327.511719 25.597656 C 328.136719 25.597656 328.566406 25.339844 328.566406 24.910156 C 328.566406 24.535156 328.375 24.34375 327.648438 24.070313 L 325.90625 23.417969 C 324.851563 23.027344 323.90625 22.085938 323.90625 20.675781 C 323.90625 18.582031 325.90625 17.738281 327.648438 17.738281 C 328.664063 17.738281 329.683594 17.898438 330.71875 18.371094 C 330.898438 18.449219 330.992188 18.542969 330.992188 18.703125 C 330.992188 18.761719 330.976563 18.839844 330.957031 18.914063 L 330.542969 20.292969 C 330.507813 20.445313 330.371094 20.523438 330.214844 20.523438 C 330.152344 20.523438 330.074219 20.5 329.996094 20.484375 C 329.25 20.207031 328.449219 20.015625 327.824219 20.015625 C 327.175781 20.015625 326.882813 20.363281 326.882813 20.640625 C 326.882813 20.875 326.960938 21.128906 327.628906 21.386719 L 329.605469 22.164063 C 330.601563 22.558594 331.367188 23.382813 331.367188 24.691406 C 331.367188 26.941406 329.371094 27.804688 327.433594 27.804688 "/>
<path style=" stroke:none;fill-rule:nonzero;fill:rgb(32.499695%,32.199097%,28.999329%);fill-opacity:1;" d="M 334.988281 27.554688 L 333.226563 27.554688 C 332.820313 27.554688 332.621094 27.417969 332.621094 26.984375 L 332.621094 18.527344 C 332.621094 18.132813 332.875 18.015625 333.226563 18.015625 L 334.988281 18.015625 C 335.363281 18.015625 335.558594 18.113281 335.558594 18.527344 L 335.558594 26.984375 C 335.558594 27.375 335.382813 27.554688 334.988281 27.554688 M 334.066406 16.878906 C 333.328125 16.878906 332.480469 16.351563 332.480469 15.414063 C 332.480469 14.457031 333.265625 13.90625 334.066406 13.90625 C 334.851563 13.90625 335.636719 14.457031 335.636719 15.394531 C 335.636719 16.328125 334.8125 16.878906 334.066406 16.878906 "/>
<path style=" stroke:none;fill-rule:nonzero;fill:rgb(32.499695%,32.199097%,28.999329%);fill-opacity:1;" d="M 343.386719 20.71875 C 343.035156 20.382813 342.410156 20.089844 341.839844 20.089844 C 340.414063 20.089844 339.964844 21.597656 339.964844 22.773438 C 339.964844 23.984375 340.292969 25.421875 341.785156 25.421875 C 342.351563 25.421875 343.078125 25.042969 343.386719 24.710938 Z M 345.796875 27.550781 L 344.152344 27.550781 C 343.820313 27.550781 343.660156 27.375 343.644531 27.160156 L 343.605469 26.75 C 343.113281 27.277344 342.054688 27.804688 341.117188 27.804688 C 338.28125 27.804688 336.90625 25.617188 336.90625 22.953125 C 336.90625 20.347656 338.300781 17.71875 341.195313 17.71875 C 342.054688 17.71875 342.863281 18.015625 343.386719 18.507813 L 343.386719 14.371094 C 343.386719 14.023438 343.488281 13.824219 343.859375 13.769531 L 345.773438 13.511719 C 345.816406 13.511719 345.894531 13.496094 345.933594 13.496094 C 346.207031 13.496094 346.324219 13.652344 346.324219 13.921875 L 346.324219 27.003906 C 346.324219 27.390625 346.089844 27.550781 345.796875 27.550781 "/>
<g clip-path="url(#clip2)" clip-rule="nonzero">
<path style=" stroke:none;fill-rule:nonzero;fill:rgb(32.499695%,32.199097%,28.999329%);fill-opacity:1;" d="M 352.496094 19.996094 C 351.511719 19.996094 350.867188 20.773438 350.730469 21.699219 L 354.003906 21.699219 C 354.003906 20.859375 353.511719 19.996094 352.496094 19.996094 M 356.175781 23.558594 L 350.695313 23.558594 C 350.929688 24.792969 352.023438 25.476563 353.21875 25.476563 C 354.078125 25.476563 354.898438 25.28125 355.683594 24.96875 C 355.765625 24.929688 355.84375 24.90625 355.917969 24.90625 C 356.097656 24.90625 356.195313 25.027344 356.230469 25.183594 C 356.3125 25.515625 356.605469 26.414063 356.605469 26.710938 C 356.605469 26.960938 356.429688 27.042969 356.230469 27.144531 C 355.195313 27.609375 353.824219 27.804688 352.6875 27.804688 C 349.574219 27.804688 347.597656 25.886719 347.597656 22.757813 C 347.597656 19.722656 349.652344 17.722656 352.667969 17.722656 C 353.921875 17.722656 354.976563 18.195313 355.707031 18.972656 C 356.683594 20.015625 356.878906 21.363281 356.878906 22.734375 L 356.878906 22.992188 C 356.878906 23.457031 356.664063 23.558594 356.175781 23.558594 "/>
</g>
<path style=" stroke:none;fill-rule:nonzero;fill:rgb(0%,62.69989%,68.598938%);fill-opacity:1;" d="M 266.714844 25.253906 C 264.359375 21.992188 264.042969 20.703125 264.042969 19.738281 C 264.042969 17.753906 265.179688 17.035156 266.714844 15.898438 C 268.175781 14.804688 268.570313 14.0625 268.570313 12.605469 C 268.570313 10.402344 266.8125 8.589844 263.46875 8.589844 C 260.722656 8.589844 259.4375 9.25 259.4375 11.539063 L 259.4375 13.574219 C 259.4375 14.980469 259.359375 17.851563 258.890625 20.875 C 258.492188 23.226563 257.925781 25.652344 256.734375 27.558594 L 268.992188 27.558594 C 267.902344 26.765625 267.453125 26.300781 266.714844 25.253906 M 256.167969 20.425781 C 256.609375 17.65625 256.757813 14.878906 256.757813 13.574219 L 256.757813 11.019531 C 256.757813 7.925781 258.613281 5.894531 263.46875 5.894531 C 268.398438 5.894531 271.320313 8.640625 271.320313 12.605469 C 271.320313 14.632813 270.722656 16.019531 269.3125 17.332031 C 268.273438 18.292969 266.914063 18.71875 266.914063 19.855469 C 266.914063 20.578125 267.085938 21.144531 268.84375 23.523438 C 270.777344 26.152344 272.632813 26.371094 273.667969 26.371094 C 275.902344 26.371094 277.015625 24.789063 277.015625 22.707031 L 277.015625 6.316406 C 277.015625 3.613281 274.808594 1.4375 272.136719 1.4375 L 255.71875 1.4375 C 253.042969 1.4375 250.863281 3.613281 250.863281 6.316406 L 250.863281 22.707031 C 250.863281 24.664063 252.003906 26.347656 253.664063 27.109375 C 254.851563 25.949219 255.769531 23.199219 256.167969 20.425781 "/>
<path style=" stroke:none;fill-rule:nonzero;fill:rgb(32.499695%,32.199097%,28.999329%);fill-opacity:1;" d="M 284.105469 2.484375 L 283.542969 2.484375 L 283.542969 5.402344 C 283.574219 5.402344 284.175781 5.414063 284.195313 5.414063 C 285.1875 5.414063 285.839844 4.960938 285.839844 3.921875 C 285.839844 2.8125 285.105469 2.484375 284.105469 2.484375 M 284.226563 6.132813 C 284.195313 6.132813 283.574219 6.125 283.542969 6.125 L 283.542969 8.582031 C 283.542969 8.707031 283.484375 8.785156 283.339844 8.785156 L 282.789063 8.785156 C 282.65625 8.785156 282.597656 8.714844 282.597656 8.574219 L 282.597656 1.976563 C 282.597656 1.832031 282.644531 1.761719 282.789063 1.761719 L 284.125 1.761719 C 285.085938 1.761719 285.878906 1.976563 286.347656 2.535156 C 286.632813 2.871094 286.796875 3.34375 286.796875 3.902344 C 286.796875 5.421875 285.632813 6.132813 284.226563 6.132813 "/>
<path style=" stroke:none;fill-rule:nonzero;fill:rgb(32.499695%,32.199097%,28.999329%);fill-opacity:1;" d="M 290.933594 5.175781 C 290.691406 4.71875 290.191406 4.441406 289.699219 4.441406 C 288.917969 4.441406 288.324219 5.136719 288.324219 6.347656 C 288.324219 7.472656 288.84375 8.164063 289.578125 8.164063 C 290.230469 8.164063 290.75 7.644531 290.933594 7.136719 Z M 292.085938 8.785156 L 291.660156 8.785156 C 291.210938 8.785156 290.996094 8.441406 290.996094 8.03125 L 290.976563 8.03125 C 290.742188 8.480469 290.070313 8.890625 289.445313 8.890625 C 288.039063 8.890625 287.417969 7.695313 287.417969 6.410156 C 287.417969 4.707031 288.425781 3.75 289.589844 3.75 C 290.097656 3.75 290.648438 3.964844 290.957031 4.371094 L 290.964844 4.035156 C 290.964844 3.914063 291.046875 3.863281 291.160156 3.863281 L 291.617188 3.863281 C 291.742188 3.863281 291.800781 3.921875 291.800781 4.054688 L 291.800781 7.625 C 291.800781 7.859375 291.8125 8.023438 291.851563 8.082031 C 291.894531 8.15625 291.945313 8.175781 292.027344 8.175781 L 292.097656 8.175781 C 292.1875 8.175781 292.242188 8.195313 292.242188 8.308594 L 292.242188 8.652344 C 292.242188 8.753906 292.1875 8.785156 292.085938 8.785156 "/>
<path style=" stroke:none;fill-rule:nonzero;fill:rgb(32.499695%,32.199097%,28.999329%);fill-opacity:1;" d="M 295.578125 4.414063 C 295.566406 4.484375 295.523438 4.515625 295.464844 4.515625 L 295.433594 4.515625 C 295.34375 4.496094 295.238281 4.484375 295.140625 4.484375 C 294.78125 4.484375 294.382813 4.71875 294.117188 5.09375 L 294.117188 8.570313 C 294.117188 8.707031 294.058594 8.789063 293.925781 8.789063 L 293.445313 8.789063 C 293.3125 8.789063 293.253906 8.714844 293.253906 8.570313 L 293.253906 4.066406 C 293.253906 3.914063 293.324219 3.863281 293.445313 3.863281 L 293.882813 3.863281 C 294.015625 3.863281 294.089844 3.914063 294.089844 4.046875 L 294.097656 4.390625 C 294.34375 4.054688 294.730469 3.75 295.269531 3.75 C 295.34375 3.75 295.464844 3.761719 295.566406 3.78125 C 295.628906 3.789063 295.648438 3.839844 295.648438 3.902344 L 295.648438 3.953125 "/>
<path style=" stroke:none;fill-rule:nonzero;fill:rgb(32.499695%,32.199097%,28.999329%);fill-opacity:1;" d="M 299.3125 8.707031 C 299.078125 8.808594 298.710938 8.890625 298.363281 8.890625 C 297.925781 8.890625 297.488281 8.765625 297.253906 8.511719 C 296.957031 8.183594 296.9375 7.777344 296.9375 7.144531 L 296.9375 4.472656 L 296.375 4.472656 C 296.242188 4.472656 296.222656 4.453125 296.222656 4.320313 L 296.222656 4.003906 C 296.222656 3.902344 296.265625 3.863281 296.355469 3.863281 L 296.9375 3.863281 L 296.9375 2.699219 C 296.9375 2.558594 296.980469 2.515625 297.109375 2.496094 L 297.609375 2.425781 L 297.652344 2.425781 C 297.753906 2.425781 297.804688 2.496094 297.804688 2.609375 L 297.804688 3.863281 L 299.007813 3.863281 C 299.097656 3.863281 299.148438 3.882813 299.148438 3.996094 L 299.148438 4.339844 C 299.148438 4.441406 299.097656 4.472656 298.996094 4.472656 L 297.804688 4.472656 L 297.804688 7.226563 C 297.804688 7.5625 297.824219 7.828125 297.976563 8 C 298.089844 8.125 298.273438 8.207031 298.539063 8.207031 C 298.773438 8.207031 299.015625 8.132813 299.179688 8.082031 C 299.199219 8.074219 299.222656 8.074219 299.242188 8.074219 C 299.292969 8.074219 299.34375 8.101563 299.363281 8.175781 L 299.445313 8.5 C 299.445313 8.519531 299.457031 8.53125 299.457031 8.542969 C 299.457031 8.625 299.394531 8.675781 299.3125 8.707031 "/>
<path style=" stroke:none;fill-rule:nonzero;fill:rgb(32.499695%,32.199097%,28.999329%);fill-opacity:1;" d="M 304.464844 4.421875 C 303.359375 4.421875 303.027344 5.390625 303.027344 6.289063 C 303.027344 7.226563 303.34375 8.214844 304.421875 8.214844 C 305.492188 8.214844 305.871094 7.277344 305.871094 6.328125 C 305.871094 5.382813 305.523438 4.421875 304.464844 4.421875 M 304.410156 8.886719 C 302.832031 8.886719 302.128906 7.765625 302.128906 6.308594 C 302.128906 4.871094 302.953125 3.75 304.472656 3.75 C 306.054688 3.75 306.769531 4.839844 306.769531 6.320313 C 306.769531 7.757813 305.929688 8.886719 304.410156 8.886719 "/>
<path style=" stroke:none;fill-rule:nonzero;fill:rgb(32.499695%,32.199097%,28.999329%);fill-opacity:1;" d="M 310.722656 1.863281 L 310.652344 2.179688 C 310.628906 2.25 310.601563 2.28125 310.550781 2.28125 C 310.519531 2.28125 310.488281 2.269531 310.457031 2.261719 C 310.292969 2.199219 310.019531 2.128906 309.785156 2.128906 C 309.089844 2.128906 308.898438 2.585938 308.898438 3.382813 L 308.898438 3.863281 L 310.152344 3.863281 C 310.253906 3.863281 310.304688 3.882813 310.304688 3.984375 L 310.304688 4.332031 C 310.304688 4.433594 310.265625 4.472656 310.160156 4.472656 L 308.898438 4.472656 L 308.898438 8.5625 C 308.898438 8.707031 308.847656 8.785156 308.703125 8.785156 L 308.226563 8.785156 C 308.09375 8.785156 308.03125 8.714844 308.03125 8.574219 L 308.03125 4.472656 L 307.429688 4.472656 C 307.316406 4.472656 307.296875 4.453125 307.296875 4.320313 L 307.296875 4.003906 C 307.296875 3.902344 307.335938 3.863281 307.441406 3.863281 L 308.03125 3.863281 L 308.03125 3.667969 C 308.03125 3.300781 308.050781 3.035156 308.070313 2.851563 C 308.191406 1.964844 308.734375 1.4375 309.683594 1.4375 C 309.988281 1.4375 310.355469 1.507813 310.609375 1.609375 C 310.710938 1.648438 310.734375 1.699219 310.734375 1.761719 C 310.734375 1.792969 310.734375 1.824219 310.722656 1.863281 "/>
</g>
</svg>
