<?xml version="1.0" standalone="no"?>
<!DOCTYPE svg PUBLIC "-//W3C//DTD SVG 20010904//EN"
 "http://www.w3.org/TR/2001/REC-SVG-20010904/DTD/svg10.dtd">
<svg version="1.0" xmlns="http://www.w3.org/2000/svg"
 width="1638.000000pt" height="1080.000000pt" viewBox="0 0 1638.000000 1080.000000"
 preserveAspectRatio="xMidYMid meet">

<g transform="translate(0.000000,1080.000000) scale(0.100000,-0.100000)"
fill="#000000" stroke="none">
<path d="M4043 10793 l-3863 -3 0 -5395 0 -5395 3893 0 3892 1 -115 34 c-161
46 -593 191 -795 265 -195 72 -398 161 -575 252 -157 81 -625 346 -855 483
-66 40 -176 105 -245 146 -69 40 -133 78 -142 84 -9 5 -36 22 -60 36 -142 85
-261 160 -284 178 -15 12 -31 21 -36 21 -6 0 -22 8 -36 18 -27 19 -87 53 -212
120 -36 19 -76 42 -90 50 -37 24 -226 130 -300 169 -36 19 -90 49 -120 67 -30
18 -89 51 -130 73 -77 42 -183 101 -235 132 -16 10 -109 66 -206 124 -97 58
-200 118 -229 134 -54 29 -95 52 -202 115 -35 20 -88 49 -118 66 -54 29 -342
189 -410 229 -19 11 -78 44 -130 73 -144 81 -404 251 -495 324 -74 59 -242
233 -281 292 -57 83 -64 142 -64 525 0 283 2 338 15 349 16 14 15 14 120 -63
44 -33 87 -62 95 -65 8 -3 17 -9 20 -13 3 -4 61 -44 130 -89 69 -45 136 -90
150 -101 25 -18 102 -63 190 -112 25 -13 81 -44 125 -69 44 -25 138 -75 208
-111 70 -37 147 -79 170 -94 23 -15 69 -41 102 -58 64 -33 124 -70 288 -176
146 -94 169 -107 200 -120 15 -6 27 -15 27 -20 0 -6 12 -15 28 -22 30 -13 176
-100 259 -153 28 -19 54 -34 58 -34 3 0 34 -19 68 -43 34 -24 69 -46 77 -49 8
-4 60 -36 115 -72 55 -37 111 -72 125 -78 14 -7 48 -27 77 -45 29 -18 56 -33
62 -33 5 0 16 -7 24 -15 8 -8 50 -32 93 -53 44 -21 101 -53 128 -70 28 -18 54
-32 60 -32 8 0 101 -66 136 -97 28 -24 75 -59 130 -94 120 -79 168 -108 250
-153 47 -26 92 -51 100 -56 8 -5 29 -16 45 -25 17 -8 53 -28 80 -44 28 -16 77
-43 110 -60 33 -17 78 -44 100 -61 22 -16 64 -42 94 -56 29 -15 61 -33 70 -41
42 -36 81 -63 122 -85 24 -13 76 -44 114 -70 39 -25 99 -60 135 -77 36 -18 85
-47 110 -66 25 -19 49 -34 53 -34 5 -1 20 -10 34 -21 14 -11 31 -20 38 -20 7
0 50 -25 96 -55 45 -30 92 -58 103 -61 12 -4 28 -12 36 -19 13 -12 146 -82
285 -152 28 -14 67 -34 87 -44 20 -11 44 -19 53 -19 10 0 29 -6 43 -14 15 -8
55 -26 90 -40 34 -14 88 -37 121 -51 32 -14 64 -25 70 -25 6 0 39 -13 74 -30
35 -16 79 -33 98 -36 19 -4 40 -12 48 -18 8 -6 32 -16 55 -22 43 -13 116 -38
151 -53 11 -5 40 -14 65 -20 83 -22 185 -53 202 -62 10 -5 50 -14 88 -19 39
-6 86 -18 103 -27 19 -10 64 -18 112 -20 44 -3 89 -8 100 -13 11 -5 45 -14 75
-20 30 -7 70 -17 88 -23 l32 -11 0 -328 0 -329 568 3 c558 3 568 4 617 25 76
34 229 93 239 93 9 0 210 85 238 100 10 6 35 16 55 24 21 8 85 33 143 56 58
23 128 50 155 60 126 46 409 162 450 184 17 9 36 16 42 16 7 0 27 9 45 20 18
11 38 20 45 20 21 0 481 223 570 276 17 10 84 50 150 88 65 37 171 100 236
140 65 39 134 80 153 91 101 59 320 189 427 253 67 41 135 81 150 90 16 10 88
55 160 101 73 46 146 91 162 99 17 9 64 39 105 67 41 29 98 65 125 81 28 15
85 53 127 84 42 30 123 85 180 122 57 36 118 79 136 95 18 15 57 48 86 73 29
25 79 68 112 96 32 28 82 70 109 94 28 24 84 75 125 115 41 40 93 88 114 106
22 19 114 106 204 194 195 189 245 256 352 471 39 80 40 85 55 255 8 96 22
235 30 309 28 253 29 270 16 270 -18 0 -57 -46 -80 -94 -31 -66 -217 -243
-428 -405 -28 -22 -64 -52 -80 -67 -15 -14 -44 -38 -63 -53 -37 -28 -182 -142
-215 -169 -97 -80 -175 -137 -350 -254 -49 -33 -97 -66 -105 -73 -8 -7 -34
-23 -58 -35 -23 -12 -56 -35 -74 -52 -17 -16 -45 -36 -62 -45 -17 -9 -61 -36
-98 -60 -37 -24 -76 -46 -85 -50 -10 -4 -35 -20 -56 -37 -37 -30 -93 -62 -239
-140 -38 -20 -68 -40 -68 -44 0 -5 -26 -22 -57 -38 -32 -15 -80 -45 -106 -66
-27 -21 -54 -38 -60 -38 -7 -1 -64 -34 -127 -75 -63 -41 -137 -86 -165 -101
-27 -14 -57 -32 -65 -40 -9 -7 -42 -26 -73 -42 -32 -16 -72 -41 -90 -56 -91
-75 -146 -115 -187 -136 -25 -12 -53 -29 -62 -37 -20 -18 -168 -103 -179 -103
-4 0 -12 -6 -16 -14 -4 -7 -33 -26 -63 -41 -30 -15 -64 -36 -76 -46 -22 -21
-149 -93 -269 -154 -38 -19 -77 -40 -85 -45 -8 -6 -26 -15 -40 -20 -14 -6 -50
-24 -80 -40 -30 -17 -60 -30 -67 -30 -7 0 -32 -14 -55 -30 -22 -17 -45 -30
-50 -30 -5 0 -38 -13 -73 -30 -35 -16 -68 -30 -73 -30 -5 0 -20 -8 -33 -18
-13 -10 -58 -31 -99 -46 -41 -16 -81 -33 -88 -39 -18 -14 -112 -57 -124 -57
-12 0 -96 -39 -118 -55 -8 -6 -40 -19 -70 -29 -30 -10 -82 -31 -115 -46 -33
-15 -78 -35 -100 -43 -72 -26 -109 -39 -155 -55 -25 -8 -52 -21 -61 -29 -8 -7
-25 -13 -38 -13 -12 0 -59 -14 -104 -32 -45 -18 -88 -31 -95 -29 -8 1 -19 -2
-25 -7 -7 -5 -36 -15 -65 -22 -28 -6 -55 -16 -58 -21 -3 -5 -21 -9 -40 -9 -19
0 -42 -4 -52 -9 -56 -29 -359 -87 -391 -76 -8 3 -25 -2 -38 -10 -18 -12 -28
-14 -38 -5 -10 9 -19 8 -37 -3 -13 -8 -45 -15 -73 -16 -27 -1 -79 -6 -115 -10
-51 -7 -70 -6 -89 6 -18 12 -29 13 -48 4 -13 -6 -26 -11 -28 -11 -2 0 -5 30
-7 68 -2 47 -7 66 -15 64 -23 -4 -14 25 14 44 59 42 66 53 50 77 -11 16 -23
21 -47 19 -57 -4 -61 6 -54 142 7 120 14 146 40 146 11 0 14 -23 14 -110 0
-87 3 -110 14 -110 34 0 38 27 42 290 2 144 9 303 14 353 5 49 7 94 5 98 -9
13 31 51 48 48 16 -4 16 -7 -6 -36 -21 -28 -23 -39 -17 -91 4 -32 6 -107 4
-168 -3 -60 -1 -185 2 -277 6 -160 8 -170 31 -198 31 -37 57 -37 94 0 l29 29
0 184 c1 218 11 317 35 349 37 48 111 83 245 114 78 19 176 49 240 75 30 12
75 29 100 37 25 8 57 21 72 29 14 8 34 14 43 14 9 0 26 6 38 12 12 7 40 18 62
24 53 15 133 43 170 60 17 7 71 27 120 43 50 16 104 36 120 45 17 9 38 16 48
16 10 0 36 9 58 20 21 11 57 29 78 40 22 11 47 20 56 20 9 0 44 16 76 35 33
19 63 35 67 35 4 0 30 12 57 25 64 32 78 31 114 -2 l30 -28 6 -230 c7 -257 12
-298 39 -303 38 -8 41 10 38 271 -3 311 -11 488 -24 505 -23 28 -66 12 -318
-117 -99 -51 -229 -111 -241 -111 -7 0 -30 -9 -53 -19 -71 -33 -246 -101 -261
-101 -8 0 -34 -9 -57 -19 -24 -10 -79 -31 -123 -46 -147 -51 -210 -74 -265
-95 -30 -12 -75 -27 -100 -34 -25 -7 -54 -18 -65 -25 -11 -6 -51 -18 -90 -27
-241 -53 -285 -59 -352 -49 l-48 7 60 20 c33 11 85 23 115 28 94 13 242 56
311 89 36 17 74 31 83 31 10 0 30 7 44 15 32 17 197 81 262 101 53 16 150 51
240 87 36 14 79 29 95 33 17 4 46 15 65 26 19 10 41 18 48 18 8 0 26 6 40 14
69 35 140 66 153 67 8 0 37 13 64 30 28 16 61 33 75 39 14 5 32 14 40 19 8 6
60 33 116 60 150 76 202 67 232 -39 8 -25 18 -59 23 -76 5 -17 9 -64 9 -105 0
-81 14 -122 25 -76 4 14 4 52 1 84 -7 64 -7 81 -7 170 1 102 24 169 79 226 18
19 67 51 120 79 31 17 64 37 73 44 8 8 20 14 25 14 5 0 32 15 59 33 28 17 61
38 75 45 14 7 41 23 62 35 74 45 312 183 373 217 35 19 67 39 72 43 4 5 22 15
38 23 17 8 47 24 67 37 20 12 65 39 100 60 35 21 81 49 103 62 22 14 54 32 70
40 17 8 44 24 60 34 81 53 196 111 219 111 16 0 39 -13 60 -35 33 -33 36 -34
46 -16 5 11 10 27 10 37 0 47 75 153 131 183 36 20 153 91 188 113 14 10 39
25 55 34 16 9 50 31 75 48 25 18 69 45 96 61 28 16 55 33 62 39 6 6 41 29 78
51 37 22 95 58 129 79 33 22 73 47 88 55 31 18 176 111 378 243 150 98 183
108 219 62 22 -29 41 -24 41 9 0 12 13 50 29 83 21 45 43 73 82 104 53 41 295
219 354 260 17 11 77 55 135 98 58 42 117 84 130 93 14 10 34 26 45 36 11 11
28 24 36 29 9 5 38 27 64 49 189 159 208 197 225 445 6 80 17 190 25 245 7 55
17 138 20 185 4 47 13 120 21 162 8 42 19 153 24 245 14 252 28 435 50 669 31
328 28 376 -28 457 -40 60 -111 103 -417 258 -66 33 -127 65 -135 69 -8 5 -62
32 -120 61 -58 29 -112 56 -120 60 -50 28 -273 129 -283 129 -7 0 -22 7 -33
15 -12 8 -39 20 -60 28 -21 8 -73 28 -114 45 -41 16 -95 36 -120 44 -25 8
-106 35 -180 60 -182 61 -256 83 -380 113 -58 14 -121 30 -140 36 -19 5 -73
16 -120 24 -47 7 -134 23 -195 35 -60 12 -144 28 -185 35 -41 7 -97 20 -125
29 -27 9 -67 16 -88 16 -21 0 -52 6 -70 14 -18 7 -59 16 -92 21 -33 4 -74 13
-91 20 -17 7 -55 16 -85 20 -30 4 -66 13 -80 21 -14 7 -54 17 -90 22 -35 5
-77 15 -94 21 -60 21 -197 61 -211 61 -8 0 -25 6 -37 14 -12 7 -42 17 -66 20
-24 4 -63 15 -87 26 -23 11 -51 20 -61 20 -10 1 -29 7 -43 15 -14 8 -34 14
-45 15 -11 0 -33 7 -49 15 -15 8 -51 21 -80 29 -28 8 -76 24 -106 36 -30 12
-73 29 -95 36 -22 8 -53 21 -70 28 -16 7 -46 19 -65 26 -19 7 -53 18 -75 26
-22 8 -52 21 -67 29 -14 8 -33 15 -42 15 -15 0 -65 20 -151 61 -22 11 -43 19
-47 19 -4 0 -40 15 -80 34 -40 19 -101 46 -134 60 -67 28 -173 76 -299 136
-44 21 -120 57 -169 79 -49 23 -101 50 -115 60 -14 10 -37 22 -51 26 -14 4
-32 13 -40 20 -8 7 -26 16 -40 20 -14 4 -50 23 -80 43 -30 19 -71 45 -90 57
-116 72 -223 145 -275 188 -171 140 -355 349 -437 497 -53 95 -79 130 -98 130
-7 0 -10 -1488 -10 -4445 0 -3554 -3 -4445 -13 -4445 -6 0 -57 12 -112 26 -55
14 -125 31 -155 38 -62 15 -148 42 -199 63 -19 8 -53 18 -75 23 -23 5 -106 32
-186 60 -80 28 -158 55 -175 60 -61 18 -258 90 -269 99 -6 5 -29 13 -51 17
-22 4 -49 13 -60 20 -11 8 -26 14 -35 14 -8 0 -27 6 -42 14 -14 8 -43 19 -65
26 -21 7 -49 19 -63 26 -72 38 -361 172 -399 184 l-44 14 -32 -37 -33 -38 -6
-257 c-8 -344 -13 -407 -37 -428 -10 -9 -25 -14 -35 -10 -15 6 -16 24 -10 196
4 104 11 215 16 247 6 32 10 113 10 180 0 112 -2 127 -26 178 -31 64 -84 113
-169 157 -33 16 -65 34 -72 40 -6 5 -49 29 -95 52 -118 61 -261 137 -273 146
-5 5 -37 23 -70 41 -33 18 -80 45 -105 61 -25 15 -56 33 -70 40 -23 11 -128
71 -218 125 -20 12 -44 25 -52 29 -8 4 -53 33 -100 63 -115 75 -120 78 -155
97 -16 9 -61 37 -100 62 -147 96 -201 112 -229 70 -12 -18 -15 -68 -16 -243
-1 -121 -4 -275 -7 -343 -5 -107 -8 -124 -25 -133 -14 -7 -23 -7 -34 2 -15 12
-15 -4 2 474 8 243 -1 294 -64 376 -30 38 -171 144 -226 169 -6 3 -44 25 -84
50 -39 25 -84 52 -100 60 -15 8 -52 31 -82 50 -30 19 -64 41 -75 47 -11 7 -67
40 -125 75 -58 34 -114 67 -125 73 -11 5 -68 38 -125 73 -58 35 -114 69 -125
75 -11 7 -44 28 -75 47 -31 19 -64 41 -75 47 -11 7 -38 22 -60 34 -22 12 -53
31 -70 43 -16 12 -41 27 -55 34 -14 7 -36 19 -50 27 -35 20 -66 19 -90 -5 -22
-22 -20 15 -25 -523 -1 -188 -6 -214 -37 -202 -40 15 -50 174 -28 445 17 219
17 271 -3 309 -9 19 -17 40 -17 46 0 21 -90 115 -129 134 -46 23 -259 152
-334 202 -32 21 -61 39 -65 39 -5 0 -24 11 -43 25 -19 14 -67 44 -108 66 -41
23 -95 56 -120 74 -25 18 -56 36 -68 39 -13 4 -23 11 -23 15 0 4 -11 13 -25
19 -14 7 -45 26 -68 42 -23 17 -105 72 -182 122 -143 93 -227 170 -245 223 -6
18 -12 350 -15 865 -3 459 -9 864 -14 900 -7 55 -6 71 11 105 29 60 92 125
198 205 100 75 194 153 374 313 95 84 273 217 290 217 3 0 29 15 58 33 79 50
251 131 358 168 194 68 443 148 481 154 24 4 51 11 60 16 20 10 121 34 254 59
55 10 113 23 128 29 16 6 42 11 58 11 17 0 74 9 127 19 53 11 120 22 147 26
28 3 72 13 99 21 27 8 64 14 81 14 17 0 58 7 90 16 57 15 104 24 278 58 43 9
98 22 123 31 25 8 57 15 71 15 15 0 56 9 92 19 36 11 89 24 116 30 76 15 164
37 220 54 28 8 68 19 90 25 107 28 360 108 387 122 9 5 56 25 105 44 225 88
582 254 808 376 61 33 126 67 144 76 19 9 58 30 85 48 28 18 58 35 66 39 8 4
32 17 52 30 20 12 63 37 95 56 32 19 69 42 83 51 38 25 155 101 245 158 302
192 628 480 655 581 6 23 8 52 5 64 -4 12 -9 30 -11 39 -4 12 7 23 38 39 24
12 45 25 48 30 3 5 55 10 115 12 61 1 -2 3 -140 2 -137 0 -1988 -1 -4112 -2z
m3931 -129 c46 -18 -15 -135 -125 -239 -84 -80 -200 -180 -219 -188 -8 -4 -35
-23 -60 -42 -25 -19 -85 -60 -135 -92 -49 -31 -117 -77 -150 -100 -32 -24 -63
-43 -67 -43 -5 0 -31 -16 -59 -35 -27 -20 -61 -40 -75 -45 -13 -5 -24 -14 -24
-20 0 -5 -5 -10 -11 -10 -6 0 -39 -17 -73 -37 -33 -21 -72 -44 -86 -51 -14 -7
-43 -24 -65 -37 -22 -14 -53 -32 -70 -40 -16 -9 -52 -29 -80 -45 -27 -16 -58
-29 -68 -29 -11 -1 -30 -10 -44 -21 -14 -11 -31 -20 -38 -20 -7 0 -18 -6 -24
-14 -7 -8 -25 -18 -41 -21 -16 -3 -34 -13 -41 -21 -14 -18 -62 -19 -57 -1 3 6
18 14 33 15 16 2 35 12 43 23 7 10 20 19 28 19 9 0 27 9 41 20 14 11 36 20 49
20 13 0 24 5 24 11 0 5 15 16 33 24 19 8 39 21 47 29 7 9 16 16 20 16 5 0 38
19 73 43 36 23 104 67 152 97 48 30 112 73 141 95 29 22 70 51 89 65 20 14 42
37 50 52 9 17 26 29 47 33 50 10 119 53 158 97 20 23 55 47 80 57 104 40 349
256 407 358 29 54 45 69 80 82 1 1 8 -2 17 -5z m-259 -150 c-9 -9 -18 -14 -21
-11 -9 9 6 27 22 27 13 0 13 -2 -1 -16z m-442 -321 c8 -7 -11 -33 -24 -33 -5
0 -9 9 -9 20 0 19 20 27 33 13z m-187 -44 c8 -13 -13 -29 -38 -29 -11 0 -18 8
-18 20 0 15 7 20 24 20 14 0 28 -5 32 -11z m-222 -47 c7 -11 -6 -27 -27 -35
-29 -11 -40 3 -21 24 18 20 39 25 48 11z m136 -110 c0 -4 -13 -19 -28 -33 -39
-33 -211 -149 -223 -149 -5 0 -17 -8 -27 -17 -18 -18 -96 -63 -106 -63 -4 0
-6 7 -6 15 0 8 4 15 9 15 5 0 57 46 115 103 78 74 120 107 154 119 50 17 112
23 112 10z m-526 -41 c4 -5 -20 -40 -51 -77 -43 -50 -59 -63 -61 -50 -2 10 11
39 29 65 45 65 70 83 83 62z m214 -12 c4 -24 -125 -143 -243 -225 -75 -51 -85
-35 -22 34 24 26 71 82 105 124 35 43 72 79 85 81 41 8 72 2 75 -14z m-428
-79 c0 -44 -197 -244 -326 -330 -12 -8 -50 -34 -84 -58 -72 -51 -127 -83 -295
-171 -68 -37 -200 -91 -220 -91 -7 0 -18 -6 -24 -14 -6 -7 -29 -16 -51 -20
-22 -3 -54 -13 -72 -20 -47 -21 -184 -64 -288 -92 -30 -8 -67 -21 -82 -29 -14
-8 -34 -15 -43 -15 -9 0 -71 -18 -138 -39 -67 -21 -140 -43 -162 -49 -22 -6
-87 -24 -145 -41 -202 -60 -245 -71 -265 -71 -12 0 -46 -9 -78 -20 -31 -11
-76 -20 -100 -20 -24 0 -48 -5 -54 -11 -6 -6 -17 -9 -25 -6 -9 3 -7 7 7 12 11
5 27 14 35 20 8 7 47 25 85 39 72 27 85 33 385 179 96 47 201 94 233 106 32
12 71 28 87 36 40 21 213 65 292 74 49 6 77 16 110 39 31 22 54 30 85 31 23 0
51 5 62 10 25 14 36 48 21 66 -15 19 19 41 186 121 228 108 250 117 342 145
19 6 58 26 87 45 30 19 57 34 61 34 5 0 184 76 329 140 28 12 45 12 45 0z m87
-75 c-4 -8 -11 -15 -17 -15 -14 0 -13 27 3 33 16 6 21 1 14 -18z m0 -181 c6
-17 -18 -41 -67 -66 -14 -7 -32 -18 -40 -24 -14 -12 -96 -44 -113 -44 -4 0 2
14 15 30 12 17 26 30 31 30 4 0 33 20 64 45 57 47 99 58 110 29z m-22 -135
c-4 -5 -16 -9 -28 -9 -21 1 -21 1 -3 15 20 15 41 11 31 -6z m-75 -34 c-14 -17
-30 -20 -30 -6 0 5 8 12 18 14 9 3 19 5 21 6 2 0 -2 -6 -9 -14z m-95 -46 c-8
-12 -45 -12 -45 0 0 10 30 20 43 14 4 -3 5 -9 2 -14z m-165 -69 c-20 -13 -33
-13 -25 0 3 6 14 10 23 10 15 0 15 -2 2 -10z m-95 -40 c-3 -5 -10 -10 -16 -10
-5 0 -9 5 -9 10 0 6 7 10 16 10 8 0 12 -4 9 -10z m-192 -77 c-7 -2 -19 -2 -25
0 -7 3 -2 5 12 5 14 0 19 -2 13 -5z m-120 -48 c4 -17 -40 -17 -47 0 -5 13 0
16 19 13 14 -2 27 -7 28 -13z m7505 -976 c123 -6 254 -17 290 -25 37 -7 84
-14 106 -14 50 0 295 -58 406 -96 25 -8 65 -21 90 -28 68 -21 152 -54 164 -66
5 -5 17 -10 26 -10 8 0 31 -8 50 -19 19 -10 45 -21 57 -25 39 -12 212 -112
298 -171 32 -22 69 -47 82 -56 84 -57 223 -215 223 -255 0 -34 -42 -43 -78
-17 -15 10 -52 32 -82 48 -30 16 -77 41 -105 56 -156 85 -331 160 -475 203
-25 8 -58 19 -75 24 -59 22 -141 45 -180 52 -22 4 -69 15 -105 24 -206 50
-521 93 -730 99 -196 6 -540 -8 -675 -27 -305 -44 -586 -119 -695 -186 -8 -6
-38 -21 -66 -35 -29 -14 -68 -38 -88 -53 -19 -15 -57 -43 -83 -62 -109 -79
-237 -225 -320 -365 -65 -109 -82 -145 -104 -225 -5 -19 -16 -47 -25 -62 -8
-15 -18 -46 -23 -70 -5 -24 -14 -56 -20 -73 -25 -72 -43 -170 -56 -309 -8 -82
-17 -156 -20 -163 -2 -8 -9 -137 -15 -286 -5 -150 -15 -288 -20 -307 -6 -19
-15 -84 -20 -145 -13 -138 -34 -244 -80 -405 -11 -36 -26 -90 -34 -120 -18
-62 -17 -61 -80 -190 -76 -155 -185 -258 -346 -328 -47 -20 -73 -24 -170 -25
-99 -1 -124 2 -180 22 -36 13 -72 30 -80 36 -8 7 -26 16 -39 20 -23 7 -74 40
-161 104 -100 73 -370 376 -370 414 0 6 -7 19 -17 29 -9 10 -22 28 -29 41 -26
43 -154 305 -154 314 0 4 -14 42 -31 83 -67 161 -79 215 -79 352 0 145 22 240
85 373 19 41 35 77 35 80 0 11 119 194 157 242 64 80 75 94 143 167 102 112
189 195 300 286 30 25 60 51 65 58 6 7 20 18 32 25 12 7 59 41 105 77 87 68
220 160 231 160 4 0 42 24 84 53 43 29 101 65 128 79 28 14 88 48 135 76 47
28 114 65 150 82 255 125 354 172 420 200 41 17 89 37 105 45 133 59 308 123
410 150 55 15 123 33 150 41 78 21 234 53 295 60 30 3 90 12 133 20 65 11 212
23 497 37 65 3 157 1 458 -14z m157 -774 c28 -27 33 -76 10 -95 -24 -20 -86
-5 -112 27 -25 30 -30 78 -10 86 35 15 89 6 112 -18z m-982 -86 c34 -42 16
-89 -34 -89 -31 0 -79 49 -79 80 0 43 79 49 113 9z m-192 -12 c22 -14 35 -32
37 -49 3 -22 -2 -27 -28 -33 -40 -9 -83 9 -101 42 -12 23 -11 27 10 44 30 24
41 24 82 -4z m333 -108 c45 -26 56 -63 29 -91 -20 -19 -20 -19 -69 4 -57 27
-65 48 -30 83 30 30 27 30 70 4z m-126 -35 c42 -48 19 -94 -48 -94 -30 0 -45
7 -65 28 -26 27 -26 27 -40 7 -35 -49 -49 -54 -99 -35 -54 20 -62 110 -10 110
14 0 37 -9 51 -20 32 -25 50 -25 58 -1 15 47 113 50 153 5z m133 -135 c50 -35
32 -109 -24 -96 -53 14 -85 75 -55 105 18 18 46 15 79 -9z m-162 -21 c60 -64
24 -122 -52 -87 -52 24 -62 103 -14 112 12 2 25 5 29 6 4 0 21 -14 37 -31z
m-713 -524 c28 -22 34 -33 34 -65 0 -69 -65 -78 -121 -16 -33 36 -37 62 -12
89 23 25 58 22 99 -8z m-9862 -1014 c76 -57 171 -120 202 -134 17 -8 37 -22
44 -32 8 -9 37 -29 65 -46 27 -16 82 -49 120 -74 39 -24 79 -48 90 -53 12 -5
27 -16 34 -25 7 -9 19 -16 25 -16 7 0 34 -15 61 -32 79 -53 119 -78 135 -85 8
-3 51 -30 95 -58 44 -29 94 -60 110 -69 32 -18 44 -25 173 -105 46 -28 87 -51
90 -51 13 -1 49 -45 68 -85 18 -37 19 -55 14 -220 -4 -99 -5 -245 -4 -324 1
-79 -2 -155 -7 -168 -13 -34 -49 -30 -76 10 -21 31 -22 37 -16 232 7 251 7
239 -1 306 -4 31 -15 65 -25 75 -9 11 -20 26 -23 36 -7 17 -71 61 -178 123
-67 38 -121 70 -250 150 -115 71 -179 109 -255 154 -38 23 -105 64 -148 91
-43 28 -84 50 -92 50 -7 0 -19 7 -26 16 -8 9 -45 37 -84 62 -38 25 -87 61
-108 79 -40 36 -64 42 -73 18 -5 -12 -10 -13 -20 -4 -10 8 -14 37 -14 104 0
120 6 125 74 75z m71 -269 c24 -16 56 -38 72 -49 103 -70 213 -142 217 -142 2
0 42 -23 88 -51 46 -28 162 -99 258 -156 96 -58 191 -115 210 -128 19 -12 81
-50 137 -85 56 -34 109 -70 117 -79 9 -10 16 -41 18 -76 5 -118 -2 -470 -11
-484 -7 -10 -24 -6 -84 23 -42 19 -78 40 -82 46 -3 5 -25 19 -48 30 -70 34
-100 51 -152 85 -27 18 -84 52 -125 75 -41 24 -82 49 -90 56 -9 7 -40 27 -70
43 -58 31 -297 186 -414 268 -37 26 -86 68 -107 92 -36 40 -39 49 -39 102 0
60 13 82 33 56 21 -26 138 -111 232 -168 50 -29 109 -67 132 -84 22 -16 54
-37 70 -46 15 -9 61 -38 101 -63 41 -25 75 -46 77 -46 2 0 39 -22 82 -48 43
-26 114 -68 158 -91 44 -24 94 -54 110 -65 17 -12 41 -27 55 -34 14 -7 43 -23
65 -37 38 -23 55 -24 55 -4 0 11 -147 109 -165 109 -7 0 -18 7 -25 15 -6 8
-42 31 -78 52 -83 48 -110 63 -151 88 -111 68 -186 112 -209 124 -15 7 -63 37
-107 66 -44 29 -118 76 -165 105 -47 29 -96 63 -110 75 -14 12 -53 41 -87 65
l-63 42 0 74 c0 76 2 81 23 64 45 -37 138 -102 207 -145 45 -27 93 -59 107
-69 57 -43 123 -68 123 -46 0 15 -5 18 -235 165 -33 22 -80 55 -105 76 -25 20
-59 44 -77 53 -38 19 -47 43 -38 99 9 49 21 77 36 77 6 0 31 -13 54 -29z
m12415 -265 c0 -32 -37 -86 -59 -86 -10 0 -24 7 -31 15 -17 20 5 90 34 111 17
12 22 11 38 -3 10 -9 18 -26 18 -37z m-10885 -467 c35 -24 73 -46 140 -83 17
-10 77 -47 151 -93 10 -7 48 -30 82 -50 35 -21 80 -48 100 -60 21 -12 51 -29
67 -38 17 -9 60 -35 97 -58 119 -74 396 -241 452 -272 30 -16 63 -37 73 -45
27 -23 82 -60 88 -60 2 0 34 -21 70 -47 53 -38 67 -54 76 -87 12 -41 4 -691
-8 -722 -8 -21 -27 -17 -54 12 l-24 26 0 281 0 282 -25 35 c-36 50 -72 90 -83
90 -6 0 -34 16 -63 35 -29 19 -57 35 -62 35 -5 0 -17 9 -27 20 -10 11 -30 26
-44 34 -55 28 -88 48 -207 123 -10 7 -48 29 -84 49 -36 20 -89 52 -117 70 -29
19 -56 34 -59 34 -4 0 -29 16 -56 36 -27 19 -60 39 -73 44 -13 5 -57 30 -97
55 -40 25 -104 64 -143 87 -38 22 -86 51 -107 65 -25 17 -47 23 -70 21 -44 -4
-45 -12 -47 -290 -1 -192 -3 -229 -17 -242 -18 -19 -20 -19 -45 -5 -30 16 -39
50 -39 157 -2 198 10 517 21 550 19 57 61 60 134 11z m76 -257 c21 -16 173
-108 251 -152 16 -8 61 -35 100 -60 40 -24 85 -51 100 -60 44 -25 158 -94 186
-113 15 -9 41 -23 57 -31 17 -8 52 -31 80 -50 27 -20 54 -36 59 -36 5 0 31
-16 57 -35 27 -19 53 -35 58 -35 5 0 22 -11 38 -23 15 -13 40 -27 56 -31 15
-3 27 -10 27 -15 0 -5 17 -19 38 -32 20 -12 49 -34 65 -47 l27 -26 0 -249 c0
-152 -4 -256 -10 -268 -16 -30 -49 -23 -123 26 -38 25 -72 45 -76 45 -4 0 -37
20 -74 45 -37 25 -71 45 -76 45 -4 0 -16 9 -25 19 -10 11 -30 22 -45 26 -14 3
-46 21 -70 40 -24 19 -48 35 -53 35 -4 0 -34 17 -66 37 -31 20 -91 58 -132 85
-41 26 -93 60 -115 75 -22 15 -62 39 -90 53 -27 14 -72 42 -99 63 -27 20 -53
37 -58 37 -21 0 -154 100 -170 127 -14 25 -17 56 -16 194 1 305 22 370 99 311z
m-1243 -44 c16 -16 15 -48 -1 -48 -8 0 -22 9 -33 21 -16 17 -16 22 -4 29 20
13 24 12 38 -2z m110 -80 c19 -19 14 -30 -8 -18 -11 6 -20 15 -20 20 0 14 14
12 28 -2z m82 -53 c7 -8 25 -15 40 -15 15 0 34 -7 41 -16 7 -9 23 -20 36 -25
13 -5 23 -15 23 -22 0 -18 -51 -10 -63 9 -4 8 -19 14 -32 14 -16 0 -25 6 -25
15 0 9 -11 20 -24 25 -13 5 -27 14 -31 19 -10 17 21 13 35 -4z m10295 -84 c-1
-58 -21 -84 -60 -79 -38 6 -32 107 8 126 42 20 52 11 52 -47z m-10043 -37 c21
-15 38 -30 38 -35 0 -4 9 -11 20 -14 11 -3 20 -13 20 -21 0 -18 -11 -18 -46 1
-16 8 -36 15 -44 15 -23 0 -90 49 -90 65 0 25 60 18 102 -11z m138 -88 c55
-16 62 -42 11 -38 -30 2 -60 24 -61 45 0 9 -4 9 50 -7z m110 -54 c0 -5 18 -16
40 -25 43 -16 51 -31 23 -41 -10 -4 -27 1 -43 14 -14 11 -35 25 -47 32 -30 15
-29 28 2 28 14 0 25 -4 25 -8z m2124 -314 c22 -12 50 -30 61 -39 11 -9 45 -29
75 -45 56 -28 103 -59 128 -81 7 -7 18 -13 23 -13 6 0 29 -13 52 -28 23 -16
89 -55 146 -88 58 -32 125 -71 150 -87 25 -15 55 -31 67 -36 11 -5 40 -23 65
-40 25 -17 57 -35 70 -41 13 -6 42 -22 64 -35 22 -13 54 -31 70 -39 17 -9 37
-20 45 -25 51 -32 225 -128 345 -191 96 -50 145 -83 175 -115 25 -27 25 -27
22 -198 -1 -95 -4 -201 -6 -237 -18 -292 -20 -312 -33 -326 -23 -22 -40 -17
-64 22 -20 34 -21 43 -15 143 4 58 9 174 12 257 6 140 5 154 -15 192 -32 63
-78 102 -182 156 -52 27 -101 54 -109 60 -17 13 -35 23 -128 73 -37 20 -85 48
-107 62 -22 14 -56 33 -75 42 -19 9 -64 35 -100 58 -36 22 -80 47 -98 56 -18
8 -47 25 -65 37 -17 13 -48 32 -70 43 -21 11 -97 56 -169 100 -180 111 -200
123 -225 134 -11 5 -24 15 -28 20 -10 17 -50 13 -69 -8 -14 -16 -17 -52 -21
-261 -3 -134 -7 -252 -11 -262 -7 -22 -27 -23 -59 -2 -25 16 -25 18 -25 169 0
83 3 241 7 349 5 173 9 200 25 222 24 29 21 29 72 2z m-1484 -88 c0 -5 -2 -10
-4 -10 -3 0 -8 5 -11 10 -3 6 -1 10 4 10 6 0 11 -4 11 -10z m1586 -195 c10 -8
24 -15 31 -15 7 0 63 -32 125 -71 62 -39 139 -84 170 -101 31 -16 62 -36 69
-44 6 -8 15 -14 20 -14 9 0 144 -76 228 -127 20 -13 54 -31 76 -42 22 -10 55
-31 74 -45 19 -14 40 -26 46 -26 6 0 16 -5 23 -12 12 -12 88 -55 207 -118 33
-18 71 -40 85 -49 14 -9 38 -23 54 -31 16 -8 45 -30 64 -48 l35 -32 -7 -92
c-3 -50 -6 -166 -6 -257 0 -91 -4 -173 -9 -181 -8 -12 -18 -10 -62 10 -30 14
-85 46 -124 71 -38 25 -86 54 -105 64 -19 10 -48 28 -65 40 -16 12 -55 35 -85
51 -30 16 -61 35 -68 42 -8 7 -41 26 -74 43 -32 16 -88 50 -124 74 -36 25 -69
45 -74 45 -4 0 -30 15 -56 33 -27 18 -112 68 -189 112 -77 43 -146 85 -153 92
-7 7 -18 13 -24 13 -23 0 -146 91 -152 112 -9 35 -7 77 4 99 6 11 7 25 3 32
-9 15 -4 143 8 174 5 13 4 25 -1 28 -13 8 -13 100 1 148 11 40 24 45 55 22z
m-1041 -34 c10 -18 -17 -23 -33 -7 -15 15 -15 16 5 16 12 0 24 -4 28 -9z
m6878 -141 c12 -17 12 -27 2 -57 -20 -58 -59 -78 -89 -47 -21 21 -20 52 4 92
23 38 61 43 83 12z m-6435 -228 c4 -24 -9 -28 -39 -11 -17 8 -18 13 -8 25 17
21 43 13 47 -14z m72 -38 c0 -11 -5 -14 -16 -10 -9 3 -20 6 -25 6 -5 0 -9 5
-9 10 0 6 11 10 25 10 16 0 25 -6 25 -16z m90 -76 c0 -13 -23 -5 -28 10 -2 7
2 10 12 6 9 -3 16 -11 16 -16z m2247 -277 c95 -48 253 -121 260 -121 3 0 24
-8 47 -19 61 -27 150 -61 163 -61 6 0 42 -14 80 -31 37 -17 91 -37 118 -45 85
-24 278 -91 310 -108 17 -9 37 -16 45 -16 8 -1 80 -23 160 -51 80 -28 170 -56
200 -64 30 -7 75 -20 100 -28 69 -24 148 -44 223 -57 l67 -12 0 -109 c0 -99
-2 -109 -18 -109 -10 0 -29 12 -43 26 -28 30 -109 74 -137 74 -10 0 -45 9 -78
19 -32 11 -93 29 -134 41 -41 11 -90 28 -109 36 -19 8 -53 19 -75 24 -23 4
-70 19 -106 33 -118 45 -244 89 -391 136 -47 15 -110 37 -140 48 -29 12 -74
27 -99 34 -57 16 -254 107 -370 170 -40 22 -122 26 -138 7 -6 -7 -13 -60 -17
-118 -6 -105 -33 -375 -41 -417 -5 -28 -30 -29 -64 -3 -24 18 -25 21 -22 137
1 65 7 152 12 193 5 41 12 148 16 238 5 122 10 167 21 177 25 25 77 17 160
-24z m-1747 -31 c0 -5 -6 -10 -14 -10 -8 0 -18 5 -21 10 -3 6 3 10 14 10 12 0
21 -4 21 -10z m200 -115 c0 -8 -4 -15 -9 -15 -5 0 -11 7 -15 15 -3 9 0 15 9
15 8 0 15 -7 15 -15z m160 -90 c0 -19 -4 -23 -17 -18 -38 14 -43 43 -8 43 20
0 25 -5 25 -25z m1494 -29 c137 -65 205 -96 213 -96 5 0 26 -9 48 -20 22 -11
51 -20 66 -20 15 0 32 -6 38 -14 7 -8 28 -17 48 -21 20 -3 45 -12 57 -20 12
-7 35 -16 53 -20 17 -3 48 -15 69 -26 21 -10 45 -19 54 -19 8 0 76 -23 150
-51 74 -28 158 -56 185 -63 28 -7 59 -17 70 -24 11 -6 54 -20 95 -32 41 -12
94 -30 118 -40 23 -11 51 -20 60 -20 10 0 38 -7 63 -15 24 -7 63 -19 86 -25
50 -13 91 -48 101 -85 8 -27 -1 -150 -13 -195 -4 -14 -9 -83 -11 -155 -7 -186
-4 -178 -67 -170 -29 4 -59 13 -67 20 -8 7 -42 16 -74 20 -33 4 -69 13 -80 20
-12 8 -39 17 -61 21 -22 4 -49 13 -60 20 -11 8 -31 14 -45 14 -14 0 -30 4 -35
9 -6 5 -46 19 -90 31 -44 12 -93 29 -108 37 -16 8 -35 12 -42 9 -7 -2 -21 4
-31 15 -9 10 -23 19 -31 19 -25 0 -238 72 -285 96 -14 8 -35 14 -45 14 -11 0
-28 7 -39 15 -10 8 -25 15 -32 15 -7 0 -37 11 -65 24 -29 13 -61 26 -72 29
-33 9 -133 53 -147 64 -7 6 -27 15 -43 19 -17 4 -42 15 -57 25 -14 11 -31 19
-37 19 -6 0 -31 10 -57 22 l-46 23 6 170 c10 294 29 395 73 395 9 0 48 -15 87
-34z m-634 -387 c0 -6 -4 -7 -10 -4 -5 3 -10 11 -10 16 0 6 5 7 10 4 6 -3 10
-11 10 -16z m238 -127 c2 -7 -3 -12 -12 -12 -9 0 -16 7 -16 16 0 17 22 14 28
-4z m152 -77 c0 -8 -4 -15 -10 -15 -5 0 -10 7 -10 15 0 8 5 15 10 15 6 0 10
-7 10 -15z m160 -85 c0 -5 -4 -10 -10 -10 -5 0 -10 5 -10 10 0 6 5 10 10 10 6
0 10 -4 10 -10z m85 -35 c0 -14 -6 -19 -20 -17 -26 5 -29 8 -21 27 8 23 41 14
41 -10z m183 -197 c16 -16 15 -28 -2 -28 -7 0 -16 9 -19 20 -6 23 3 26 21 8z
m97 -43 c0 -28 -29 -25 -33 3 -3 19 0 23 15 20 10 -2 18 -12 18 -23z m345 -15
c0 -5 -5 -10 -11 -10 -5 0 -7 5 -4 10 3 6 8 10 11 10 2 0 4 -4 4 -10z m-231
-19 c12 -21 5 -31 -21 -31 -11 0 -18 7 -18 18 0 35 23 43 39 13z m81 -36 c0
-8 -6 -15 -14 -15 -17 0 -28 14 -19 24 12 12 33 6 33 -9z m117 -40 c7 -20 -2
-29 -21 -22 -9 4 -13 13 -10 22 8 19 23 19 31 0z m118 -56 c0 -7 -7 -15 -15
-16 -21 -4 -64 32 -56 45 10 16 71 -9 71 -29z m73 -17 c3 -17 -2 -22 -17 -22
-14 0 -21 6 -21 18 0 38 33 41 38 4z m352 -117 c0 -8 -7 -15 -15 -15 -16 0
-20 12 -8 23 11 12 23 8 23 -8z m200 -50 c0 -8 -7 -15 -15 -15 -8 0 -15 7 -15
15 0 8 7 15 15 15 8 0 15 -7 15 -15z m80 -31 c0 -16 -16 -19 -25 -4 -8 13 4
32 16 25 5 -4 9 -13 9 -21z m80 -9 c0 -8 -4 -15 -9 -15 -5 0 -11 7 -15 15 -3
9 0 15 9 15 8 0 15 -7 15 -15z m120 -29 c0 -2 -7 -9 -15 -16 -12 -10 -15 -10
-15 4 0 9 7 16 15 16 8 0 15 -2 15 -4z"/>
<path d="M12150 8079 c-14 -6 -73 -14 -132 -19 -59 -5 -116 -14 -127 -20 -12
-6 -58 -15 -103 -21 -46 -5 -89 -16 -97 -24 -13 -12 -9 -17 30 -34 56 -26 76
-26 89 -1 6 12 21 20 36 20 14 0 38 7 54 15 16 8 64 19 108 24 43 4 90 15 103
24 15 9 62 17 127 21 57 3 111 10 120 16 23 13 -175 12 -208 -1z"/>
<path d="M11485 7937 c-66 -23 -136 -50 -157 -60 -20 -9 -40 -17 -45 -17 -9 0
-287 -122 -403 -177 -180 -85 -401 -205 -505 -274 -33 -21 -75 -46 -93 -55
-18 -8 -55 -29 -81 -47 -26 -18 -54 -36 -63 -42 -286 -182 -682 -544 -837
-765 -43 -61 -97 -144 -113 -175 -44 -82 -68 -136 -68 -150 0 -9 -7 -26 -16
-40 -23 -36 -38 -137 -38 -265 0 -176 13 -246 75 -375 10 -22 19 -44 19 -49 0
-11 122 -257 152 -306 12 -19 35 -53 53 -75 17 -22 38 -51 47 -65 45 -71 337
-340 368 -340 5 0 35 -15 67 -34 32 -18 90 -41 129 -51 62 -16 84 -17 167 -7
53 6 108 17 121 24 136 72 218 141 249 206 5 12 14 22 18 22 4 0 10 12 14 27
4 16 12 34 18 42 7 8 17 32 23 55 7 23 24 73 39 111 15 39 31 90 35 115 4 25
14 68 23 95 8 28 18 79 22 113 3 35 11 76 17 90 13 35 35 292 48 562 20 421
39 599 75 730 43 153 91 293 108 317 5 7 22 40 39 73 59 122 110 189 249 329
103 103 136 133 175 158 11 7 36 24 57 38 21 14 62 37 90 52 29 14 54 29 57
34 3 4 19 10 35 14 17 3 48 14 70 24 50 23 165 61 185 61 8 0 29 7 45 16 17 9
66 20 109 25 52 5 85 14 95 25 15 15 9 16 -74 12 -65 -3 -98 -9 -118 -22 -22
-15 -40 -18 -90 -13 -58 5 -63 4 -84 -21 -19 -24 -28 -27 -82 -27 -58 0 -63
-2 -96 -37 -19 -21 -40 -38 -48 -38 -8 0 -22 -9 -32 -20 -10 -11 -22 -20 -26
-20 -8 0 -28 -13 -164 -110 -196 -140 -380 -341 -449 -490 -8 -19 -20 -42 -25
-50 -9 -13 -32 -63 -76 -165 -7 -16 -16 -46 -20 -65 -4 -19 -13 -46 -20 -60
-7 -14 -15 -44 -19 -67 -3 -23 -15 -62 -26 -88 -18 -41 -23 -46 -47 -43 -18 2
-32 12 -40 28 -12 27 -13 24 27 180 39 150 166 428 228 500 7 8 26 33 43 55
41 54 115 131 175 182 93 81 111 103 83 103 -25 0 -366 -175 -400 -206 -19
-17 -51 -37 -79 -50 -19 -8 -153 -97 -160 -105 -3 -3 -16 -12 -30 -19 -91 -47
-460 -374 -460 -408 0 -11 31 -18 130 -28 36 -4 79 -13 97 -21 52 -21 60 -17
65 30 3 24 17 63 32 88 15 24 32 53 39 64 66 112 128 189 276 348 41 44 49 48
86 45 35 -3 40 -6 43 -29 2 -20 -13 -42 -73 -105 -141 -146 -221 -254 -290
-392 -15 -29 -36 -58 -46 -65 -29 -18 -23 -29 31 -61 105 -63 192 -166 230
-274 41 -115 15 -242 -63 -304 -37 -31 -101 -65 -149 -81 -16 -6 -16 -8 -1
-38 24 -48 12 -402 -17 -508 -11 -41 -20 -86 -20 -101 0 -14 -5 -31 -12 -38
-17 -17 -57 -15 -64 3 -4 8 -12 15 -20 15 -11 0 -14 -17 -12 -77 4 -167 -40
-262 -149 -323 -47 -27 -62 -30 -140 -30 -82 0 -93 3 -163 38 -81 42 -170 102
-207 142 -52 56 -61 67 -98 120 -61 88 -108 181 -117 235 -19 118 -20 139 -8
191 17 69 67 129 134 160 42 20 67 24 146 24 97 0 131 -6 208 -35 61 -22 169
-94 220 -147 52 -53 132 -167 132 -188 1 -24 48 -76 59 -65 12 13 34 211 27
241 -3 12 -18 29 -34 36 -30 16 -69 37 -92 50 -8 4 -22 11 -30 14 -8 4 -71 33
-140 66 -69 33 -150 72 -180 85 -30 14 -62 29 -71 33 -59 30 -181 71 -194 66
-9 -3 -28 -32 -42 -63 -34 -77 -50 -93 -88 -93 -33 0 -45 13 -45 48 0 13 66
161 91 202 5 8 13 24 18 36 5 11 24 42 42 68 19 26 39 55 44 64 6 10 21 33 33
52 15 24 34 39 59 46 32 9 37 15 35 35 -7 43 -31 89 -47 89 -15 0 -53 -36
-112 -107 -73 -88 -163 -214 -163 -229 0 -6 -7 -17 -14 -24 -8 -6 -20 -28 -27
-48 -6 -20 -17 -44 -24 -52 -31 -38 -75 -240 -74 -345 0 -163 58 -351 139
-455 15 -19 33 -47 41 -62 8 -14 27 -41 42 -60 15 -18 41 -50 57 -72 50 -65
163 -160 265 -223 145 -89 339 -78 457 26 50 43 109 135 120 185 5 22 17 59
27 81 10 22 28 85 40 140 12 55 27 118 32 140 18 73 41 348 41 498 1 142 2
149 22 157 25 9 46 3 64 -18 21 -27 16 -317 -8 -453 -11 -63 -20 -133 -20
-156 0 -23 -7 -62 -15 -85 -7 -24 -18 -68 -24 -98 -13 -78 -46 -190 -65 -225
-9 -16 -16 -36 -16 -43 0 -29 -94 -166 -143 -207 -147 -127 -332 -134 -547
-21 -119 62 -338 285 -414 421 -9 17 -25 44 -35 60 -80 131 -105 189 -131 301
-52 223 -29 403 80 615 48 95 116 200 145 224 6 6 26 30 44 55 18 25 55 69 83
99 47 48 55 53 85 48 28 -5 35 -2 42 16 35 90 48 116 74 144 17 18 43 35 58
38 15 4 33 12 39 20 6 7 31 16 55 20 43 6 59 25 35 40 -34 21 16 82 190 232
158 137 240 201 317 248 18 11 63 41 100 66 122 82 177 115 238 143 33 15 67
31 75 37 8 5 29 16 45 24 17 9 37 19 45 24 17 9 80 38 165 76 33 15 93 43 133
61 40 19 78 34 85 34 7 0 26 9 42 20 17 11 38 20 49 20 10 0 34 9 53 21 25 16
42 19 68 15 29 -6 36 -3 46 16 7 13 19 28 27 34 20 14 7 34 -21 33 -12 0 -76
-19 -142 -42z"/>
<path d="M12242 7970 c-23 -3 -48 -12 -55 -19 -10 -11 2 -12 68 -7 44 4 82 9
84 12 14 14 -45 22 -97 14z"/>
<path d="M10055 6774 c-11 -2 -45 -9 -75 -15 -60 -12 -90 -32 -127 -81 -34
-47 -33 -138 4 -208 26 -50 148 -190 165 -190 4 0 32 -16 60 -37 29 -20 66
-40 83 -44 16 -4 50 -15 75 -24 33 -12 65 -16 120 -12 88 5 147 34 195 94 28
36 30 43 30 124 0 69 -4 91 -17 106 -10 11 -18 24 -18 30 0 35 -155 181 -210
198 -14 4 -35 13 -47 21 -12 8 -53 18 -90 24 -37 5 -81 11 -98 14 -16 2 -39 2
-50 0z m205 -87 c83 -32 121 -59 183 -128 50 -56 56 -68 62 -120 9 -78 -6
-120 -58 -161 -40 -32 -43 -33 -142 -33 -92 0 -105 3 -166 32 -81 39 -176 125
-207 186 -61 122 2 234 138 247 77 7 127 1 190 -23z"/>
<path d="M10039 6601 c-60 -59 -53 -101 31 -187 60 -63 125 -94 197 -96 76 -2
98 6 123 46 36 59 20 125 -47 189 -63 61 -122 87 -199 87 -64 0 -68 -1 -105
-39z m219 -81 c47 -34 52 -53 20 -87 -32 -35 -78 -31 -122 11 -42 39 -45 60
-13 87 32 27 68 23 115 -11z"/>
<path d="M9774 6328 c-15 -24 -32 -48 -37 -55 -9 -13 47 -54 93 -68 26 -8 45
-16 144 -59 32 -14 64 -26 71 -26 7 0 18 -6 24 -14 7 -8 24 -17 39 -20 15 -4
41 -13 57 -21 188 -88 200 -91 209 -40 9 47 4 53 -52 60 -26 4 -73 15 -105 26
-31 10 -63 19 -71 19 -7 0 -19 7 -26 15 -7 8 -20 15 -29 15 -30 1 -192 121
-234 175 -15 19 -34 35 -41 35 -7 0 -26 -19 -42 -42z"/>
<path d="M9669 6164 c-16 -19 -5 -39 31 -59 35 -19 111 -52 138 -60 13 -4 54
-22 90 -40 37 -18 99 -47 137 -65 39 -17 117 -55 174 -82 109 -53 132 -55 139
-10 4 25 -47 65 -129 101 -30 13 -91 41 -137 62 -45 22 -89 39 -97 39 -7 0
-16 4 -19 8 -3 5 -36 21 -73 37 -37 15 -86 35 -108 45 -50 22 -104 40 -120 40
-7 0 -18 -7 -26 -16z"/>
<path d="M9612 5781 c-24 -17 -54 -46 -67 -66 -22 -31 -25 -47 -25 -125 0 -49
4 -91 9 -94 5 -4 16 -26 24 -50 35 -103 137 -228 248 -305 62 -43 186 -86 221
-76 83 23 168 81 168 114 0 8 8 23 17 34 22 23 31 155 15 208 -42 137 -98 216
-207 294 -108 76 -161 95 -267 95 -86 0 -96 -3 -136 -29z m304 -82 c67 -31
177 -132 190 -174 4 -11 14 -28 22 -38 12 -13 17 -45 20 -110 4 -90 3 -93 -27
-134 -45 -62 -75 -78 -146 -78 -66 1 -145 31 -211 81 -42 33 -118 129 -129
164 -4 14 -13 32 -20 40 -17 20 -28 103 -20 150 4 26 21 54 49 84 l42 46 83 0
c70 0 91 -4 147 -31z"/>
<path d="M9738 5625 c-26 -17 -41 -38 -49 -65 -11 -36 -10 -47 11 -98 55 -132
144 -206 250 -205 49 0 57 3 82 34 43 51 45 89 12 172 -27 67 -92 147 -119
147 -6 0 -27 9 -48 20 -50 27 -95 25 -139 -5z m178 -122 c27 -23 34 -35 34
-64 0 -66 -66 -85 -119 -35 -38 36 -47 71 -26 102 21 33 66 32 111 -3z"/>
<path d="M2205 4719 c-12 -18 5 -78 25 -89 36 -19 46 45 13 83 -18 20 -29 22
-38 6z"/>
<path d="M2350 4606 c0 -8 6 -21 14 -29 12 -12 119 -76 244 -147 15 -8 59 -36
99 -62 40 -27 79 -48 88 -48 25 0 17 38 -12 55 -16 9 -40 23 -55 33 -25 16
-172 104 -213 128 -11 6 -47 28 -79 48 -64 39 -86 44 -86 22z"/>
<path d="M3300 4028 c0 -13 65 -63 110 -85 14 -7 39 -22 55 -33 17 -11 46 -29
65 -40 41 -24 49 -29 152 -92 84 -53 109 -59 101 -28 -5 19 -100 87 -173 125
-19 10 -61 35 -92 57 -32 21 -66 41 -75 45 -10 3 -37 19 -60 35 -44 29 -83 37
-83 16z"/>
<path d="M3290 3842 c0 -17 81 -74 223 -158 27 -16 64 -38 83 -49 113 -67 144
-85 150 -85 3 0 29 -18 56 -40 28 -22 56 -40 62 -40 6 0 49 -25 96 -55 47 -30
90 -55 96 -55 6 0 17 -6 23 -14 11 -13 112 -77 191 -120 19 -10 48 -28 65 -40
81 -57 146 -87 160 -74 16 16 -16 37 -334 230 -85 51 -174 104 -197 118 -123
71 -344 206 -379 230 -22 15 -67 42 -100 60 -33 17 -69 40 -80 49 -22 19 -87
51 -104 51 -6 0 -11 -4 -11 -8z"/>
<path d="M3873 3733 c-14 -5 -18 -53 -5 -53 4 0 15 -14 24 -30 9 -17 24 -30
33 -30 26 0 29 30 6 60 -11 16 -21 33 -21 39 0 11 -21 19 -37 14z"/>
<path d="M4020 3595 c0 -13 141 -115 160 -115 4 0 34 -17 66 -39 33 -21 88
-56 124 -78 36 -21 76 -46 90 -56 16 -10 30 -13 40 -7 20 13 -43 69 -150 131
-115 68 -144 86 -222 136 -69 44 -108 54 -108 28z"/>
<path d="M5020 2976 c0 -16 18 -32 60 -55 16 -9 74 -42 127 -74 54 -32 107
-63 118 -70 11 -6 47 -28 80 -48 66 -41 96 -50 102 -32 5 14 -70 71 -152 114
-33 18 -81 47 -108 65 -26 19 -51 34 -55 34 -4 0 -34 18 -67 40 -61 40 -105
51 -105 26z"/>
<path d="M5005 2791 c9 -15 124 -101 134 -101 5 0 46 -23 91 -51 45 -28 96
-59 114 -68 17 -10 51 -30 76 -45 25 -14 71 -40 103 -56 31 -17 57 -34 57 -39
0 -6 10 -13 23 -17 12 -4 46 -22 75 -40 29 -19 55 -34 58 -34 3 0 45 -26 92
-57 85 -57 108 -71 167 -101 17 -9 65 -37 108 -64 82 -51 154 -84 164 -75 9
10 -5 37 -24 45 -10 4 -43 23 -73 42 -30 19 -64 41 -75 47 -23 14 -199 118
-249 148 -92 55 -172 102 -205 122 -20 12 -61 36 -91 53 -90 51 -198 116 -212
127 -7 6 -49 30 -93 53 -44 24 -105 61 -135 82 -50 34 -121 54 -105 29z"/>
<path d="M5584 2669 c-9 -15 35 -96 55 -102 45 -11 54 27 19 80 -23 33 -60 44
-74 22z"/>
<path d="M5760 2548 c0 -7 4 -18 8 -23 12 -17 79 -64 104 -74 22 -8 237 -135
342 -201 54 -34 78 -29 59 12 -9 19 -142 104 -203 129 -8 4 -58 34 -112 67
-53 33 -105 63 -116 66 -11 4 -26 13 -32 21 -15 18 -50 20 -50 3z"/>
<path d="M6855 1950 c-3 -5 -4 -14 0 -19 8 -14 89 -57 121 -65 16 -4 36 -13
44 -20 8 -6 42 -22 75 -35 33 -12 78 -31 100 -41 22 -10 56 -23 75 -29 63 -18
121 -41 146 -58 28 -18 48 -7 42 23 -3 17 -18 24 -168 79 -41 15 -93 35 -115
45 -105 47 -155 70 -216 99 -69 33 -94 38 -104 21z"/>
<path d="M6837 1763 c-16 -16 -5 -44 21 -54 28 -10 32 -12 174 -78 48 -23 92
-41 98 -41 5 0 27 -9 47 -20 21 -11 44 -20 52 -20 7 0 28 -9 45 -19 17 -10 47
-22 66 -26 19 -4 40 -11 47 -17 6 -5 24 -13 40 -18 15 -5 60 -21 98 -35 39
-14 122 -44 185 -66 63 -22 140 -49 170 -60 30 -11 80 -27 111 -35 31 -7 90
-27 130 -44 41 -16 90 -33 109 -36 19 -4 47 -13 61 -20 40 -20 125 -29 134
-13 10 15 -29 49 -57 49 -11 0 -40 9 -66 19 -26 11 -99 35 -162 54 -63 19
-131 41 -150 48 -33 12 -90 31 -170 59 -19 6 -78 25 -130 42 -52 16 -113 38
-135 48 -22 10 -69 28 -105 39 -36 10 -103 35 -150 55 -46 20 -88 36 -93 36
-4 0 -46 18 -93 40 -47 22 -88 40 -92 40 -4 0 -43 18 -86 40 -82 42 -88 44
-99 33z"/>
<path d="M7560 1685 c-15 -19 -7 -54 20 -83 27 -29 85 -30 100 -3 14 27 14 26
-21 66 -34 38 -77 47 -99 20z"/>
<path d="M7774 1595 c-7 -16 12 -45 29 -45 5 0 28 -9 51 -19 23 -10 79 -30
126 -45 47 -14 108 -33 135 -42 28 -9 62 -20 78 -25 15 -5 39 -13 55 -18 188
-61 192 -62 192 -28 0 28 -17 47 -43 47 -28 0 -155 38 -203 61 -22 10 -50 19
-63 19 -12 0 -32 5 -44 12 -12 6 -44 17 -72 24 -64 16 -142 43 -177 60 -34 18
-57 18 -64 -1z"/>
<path d="M9090 10442 c0 -22 316 -293 383 -328 16 -9 49 -31 74 -50 24 -19 50
-34 58 -34 7 0 18 -6 24 -14 7 -8 29 -23 49 -34 20 -10 73 -38 117 -61 90 -48
280 -129 380 -162 17 -6 41 -16 55 -24 14 -7 41 -16 60 -20 19 -4 44 -12 55
-19 11 -7 61 -25 110 -40 50 -15 104 -32 120 -38 17 -6 48 -15 70 -20 22 -6
56 -17 75 -24 19 -8 55 -18 80 -24 72 -15 172 -40 210 -52 45 -14 136 -36 225
-53 39 -8 87 -21 107 -29 40 -17 108 -22 108 -7 0 5 -15 14 -32 20 -18 7 -64
27 -103 45 -130 62 -161 76 -171 76 -5 0 -40 16 -79 36 -38 19 -121 55 -185
81 -63 25 -132 54 -153 65 -22 11 -74 22 -125 27 -63 6 -102 15 -141 35 -33
17 -62 25 -76 22 -30 -8 -98 14 -159 50 -39 23 -52 38 -60 67 -12 41 -5 37
-196 114 -36 14 -69 29 -75 33 -5 4 -64 29 -130 55 -66 26 -132 56 -147 66
-14 11 -29 19 -32 19 -4 0 -64 27 -134 61 -138 65 -176 83 -267 124 -33 15
-68 32 -77 37 -10 5 -18 5 -18 0z"/>
<path d="M10278 9543 c7 -3 16 -2 19 1 4 3 -2 6 -13 5 -11 0 -14 -3 -6 -6z"/>
<path d="M10452 9538 c3 -7 23 -14 47 -16 32 -2 42 0 39 10 -3 7 -23 14 -47
16 -32 2 -42 0 -39 -10z"/>
<path d="M10365 9500 c3 -5 8 -10 11 -10 2 0 4 5 4 10 0 6 -5 10 -11 10 -5 0
-7 -4 -4 -10z"/>
<path d="M10430 9461 c0 -5 7 -12 16 -15 28 -11 54 -6 54 9 0 10 -11 15 -35
15 -19 0 -35 -4 -35 -9z"/>
<path d="M10520 9432 c0 -15 24 -32 47 -32 31 0 29 18 -3 30 -31 12 -44 13
-44 2z"/>
<path d="M10628 9389 c-9 -6 -4 -11 15 -18 16 -6 35 -11 42 -11 8 0 18 -7 23
-16 5 -8 28 -18 52 -21 24 -3 51 -14 62 -25 10 -10 26 -18 36 -18 10 0 35 -9
57 -20 22 -11 47 -20 56 -20 9 0 22 -7 29 -15 6 -7 33 -17 58 -21 26 -4 63
-15 82 -25 19 -11 44 -19 55 -19 11 0 29 -6 40 -14 11 -7 36 -17 55 -21 19 -4
44 -13 55 -20 11 -7 41 -16 65 -20 25 -4 61 -16 80 -26 19 -11 43 -19 53 -19
10 0 30 -6 45 -14 15 -7 46 -17 69 -21 22 -3 49 -13 60 -20 10 -8 37 -15 59
-15 24 0 51 -8 65 -18 13 -11 44 -22 69 -25 25 -3 59 -13 75 -21 32 -17 125
-22 125 -7 0 17 -104 61 -158 67 -32 4 -68 12 -82 19 -14 7 -41 16 -60 20 -31
6 -100 34 -140 57 -45 26 -84 38 -119 38 -22 0 -43 5 -46 10 -3 6 -16 10 -28
10 -12 1 -40 8 -62 16 -22 8 -64 19 -94 24 -30 5 -58 15 -62 21 -4 6 -30 15
-58 20 -28 4 -58 15 -67 23 -8 9 -25 16 -37 16 -12 0 -39 9 -60 20 -20 11 -49
20 -63 20 -14 0 -37 9 -51 20 -16 13 -41 20 -67 20 -29 0 -47 6 -59 20 -11 13
-29 20 -51 20 -18 0 -39 6 -45 14 -14 17 -55 26 -73 15z"/>
<path d="M11108 9298 c17 -8 26 -8 34 0 9 9 4 12 -22 11 -33 0 -34 -1 -12 -11z"/>
<path d="M11195 9267 c4 -8 25 -18 50 -21 24 -4 48 -13 55 -21 6 -7 33 -16 61
-20 29 -4 53 -13 58 -23 6 -11 28 -17 70 -20 56 -4 61 -3 61 16 0 17 -9 21
-52 27 -29 4 -60 13 -68 20 -8 7 -37 15 -64 19 -27 3 -55 11 -61 16 -7 6 -36
13 -64 17 -44 5 -51 4 -46 -10z"/>
<path d="M11686 9153 c-4 -10 1 -24 13 -37 25 -25 33 -18 25 22 -7 34 -28 43
-38 15z"/>
<path d="M11865 9110 c-9 -15 43 -36 56 -23 6 6 8 16 5 22 -9 14 -53 14 -61 1z"/>
<path d="M12120 9054 c0 -9 7 -14 17 -12 25 5 28 28 4 28 -12 0 -21 -6 -21
-16z"/>
<path d="M12320 8990 c0 -5 4 -10 9 -10 6 0 13 5 16 10 3 6 -1 10 -9 10 -9 0
-16 -4 -16 -10z"/>
<path d="M12463 8923 c-32 -22 -28 -35 10 -31 24 2 33 8 35 26 4 26 -13 28
-45 5z"/>
<path d="M12133 8868 c2 -8 20 -13 42 -13 22 0 40 5 43 13 2 8 -10 12 -43 12
-33 0 -45 -4 -42 -12z"/>
<path d="M12640 8857 c0 -27 27 -44 44 -27 13 13 -4 44 -28 48 -11 3 -16 -4
-16 -21z"/>
<path d="M3840 8250 c-41 -4 -118 -11 -170 -15 -52 -4 -109 -13 -126 -20 -17
-7 -49 -16 -72 -20 -143 -24 -329 -124 -463 -250 -57 -54 -164 -189 -193 -245
-86 -164 -110 -239 -126 -393 -11 -105 -10 -131 5 -230 10 -62 26 -128 37
-147 10 -19 18 -38 18 -43 0 -28 89 -152 142 -198 70 -61 105 -80 208 -115 67
-23 85 -25 170 -20 53 3 137 16 190 31 52 14 113 29 135 33 69 14 261 74 400
127 39 14 104 38 145 51 41 14 90 32 109 41 19 8 53 18 75 23 23 5 91 26 151
45 158 52 194 63 250 74 28 6 111 24 186 40 266 57 431 73 768 73 256 -1 325
-4 445 -22 156 -23 272 -45 356 -67 30 -7 73 -18 95 -24 143 -35 420 -158 490
-218 11 -9 38 -29 60 -44 95 -64 322 -308 366 -394 7 -16 28 -49 46 -74 17
-26 62 -109 98 -185 37 -77 73 -151 81 -166 8 -14 14 -32 14 -39 0 -7 9 -31
19 -53 17 -36 40 -108 87 -271 29 -102 46 -172 58 -245 7 -41 17 -84 23 -95 6
-11 14 -42 18 -70 4 -27 12 -61 17 -75 5 -14 18 -70 29 -125 11 -55 26 -131
34 -170 7 -38 18 -81 23 -95 5 -14 13 -50 17 -80 4 -30 12 -66 17 -80 6 -14
16 -52 23 -85 8 -33 20 -80 28 -105 8 -25 20 -65 26 -90 31 -121 37 -135 53
-138 12 -2 21 6 28 23 12 32 12 410 0 700 -5 116 -14 331 -19 479 -8 182 -16
285 -26 319 -8 28 -15 64 -15 80 0 48 -76 325 -105 387 -7 14 -22 52 -34 85
-13 33 -27 68 -32 78 -5 9 -13 25 -17 35 -23 47 -64 125 -126 237 -9 17 -50
77 -126 189 -91 134 -268 305 -430 416 -12 8 -34 25 -48 37 -15 13 -30 23 -34
23 -7 0 -30 16 -133 88 -22 15 -47 31 -55 35 -8 5 -33 19 -55 32 -22 14 -49
29 -61 34 -11 5 -38 21 -59 35 -56 38 -496 254 -625 306 -30 12 -73 30 -95 40
-156 70 -474 186 -695 254 -25 8 -58 19 -75 25 -16 5 -64 20 -105 31 -41 12
-104 30 -140 40 -86 25 -188 49 -277 65 -40 7 -77 16 -83 20 -6 4 -55 13 -108
20 -53 8 -122 18 -152 24 -136 25 -538 44 -660 31z m500 -85 c85 -9 184 -22
220 -30 36 -8 90 -17 120 -20 30 -4 80 -13 110 -20 114 -28 196 -47 240 -56
25 -5 65 -16 90 -24 25 -8 86 -26 135 -41 301 -90 645 -215 960 -351 132 -57
216 -96 265 -122 8 -5 60 -30 115 -56 99 -47 240 -126 345 -193 102 -65 205
-134 251 -168 26 -19 50 -34 54 -34 16 0 148 -116 227 -199 138 -144 234 -276
353 -480 14 -24 28 -55 31 -67 3 -13 12 -28 20 -35 8 -6 14 -16 14 -22 0 -18
-43 -57 -63 -57 -16 0 -18 5 -13 33 3 19 0 42 -8 57 -8 14 -29 54 -47 90 -18
36 -47 83 -64 105 -17 22 -43 58 -58 80 -14 22 -51 67 -82 99 -30 33 -55 63
-55 66 0 4 -18 15 -40 25 -38 17 -40 20 -40 61 0 48 -5 51 -90 56 -42 3 -45 5
-46 31 -1 16 -5 32 -10 35 -5 4 -27 19 -49 34 -22 15 -65 46 -95 68 -30 22
-73 52 -95 66 -22 14 -56 37 -75 49 -19 13 -58 36 -87 52 -28 15 -87 49 -130
74 -43 25 -89 50 -103 54 -14 4 -32 13 -40 20 -8 7 -44 25 -80 40 -36 15 -96
42 -135 60 -38 18 -81 36 -95 40 -14 4 -34 14 -45 21 -11 8 -26 14 -35 14 -8
0 -28 7 -45 16 -32 16 -88 37 -220 80 -44 15 -101 35 -127 45 -26 11 -54 19
-63 19 -9 0 -64 16 -123 36 -59 19 -129 39 -157 44 -27 5 -57 11 -66 15 -8 3
-32 -5 -53 -20 l-37 -25 -27 29 c-68 74 -165 114 -287 117 -44 2 -90 3 -103 3
-14 1 -27 10 -34 25 -12 28 -43 42 -113 52 -27 4 -63 13 -80 20 -16 6 -57 15
-90 19 -33 4 -78 13 -100 20 -22 7 -76 16 -120 20 -44 3 -124 13 -177 21 -126
18 -367 18 -488 -1 -145 -23 -183 -30 -205 -42 -11 -6 -38 -14 -59 -18 -63
-11 -244 -112 -293 -163 -99 -103 -147 -163 -181 -227 -32 -61 -62 -132 -62
-148 0 -8 -7 -32 -17 -53 -12 -29 -16 -68 -15 -150 1 -171 39 -279 129 -372
95 -96 256 -148 362 -116 25 7 62 14 82 14 20 0 62 9 94 20 32 11 70 20 84 20
14 0 53 9 86 19 33 11 121 39 195 61 74 23 149 47 165 54 17 8 46 17 65 21 19
4 80 22 135 41 55 19 107 34 115 34 8 0 39 11 68 25 56 26 65 47 30 68 -12 8
-36 4 -95 -17 -43 -15 -100 -33 -128 -41 -27 -7 -63 -18 -80 -24 -114 -41
-275 -91 -296 -91 -13 0 -44 -9 -68 -20 -24 -11 -53 -20 -65 -20 -11 0 -48 -9
-81 -20 -172 -56 -216 -64 -351 -64 -118 1 -134 3 -162 22 -16 12 -34 22 -39
22 -30 1 -124 116 -148 181 -33 91 -37 115 -32 199 6 93 31 180 71 250 14 25
32 59 40 75 24 50 124 157 200 213 105 79 211 124 381 158 134 28 529 25 705
-4 145 -25 310 -57 360 -70 19 -6 47 -13 63 -16 38 -9 34 -21 -16 -51 -50 -29
-92 -32 -105 -9 -5 9 -37 23 -73 31 -106 24 -395 55 -539 56 l-134 2 -15 -27
c-9 -15 -13 -29 -10 -33 3 -3 57 -8 118 -12 150 -8 156 -15 125 -138 -17 -68
-34 -148 -59 -280 -9 -49 -21 -97 -26 -106 -5 -9 -12 -43 -15 -74 -7 -56 -8
-57 -53 -77 -46 -20 -141 -40 -195 -42 -37 -1 -44 18 -15 41 116 92 182 178
223 288 31 81 35 188 10 238 -18 35 -77 104 -106 125 -23 17 -168 52 -211 52
-64 -1 -169 -30 -254 -71 -132 -65 -224 -164 -281 -304 -20 -50 -24 -77 -24
-165 -1 -94 2 -110 26 -157 25 -49 76 -103 98 -103 5 0 21 -9 35 -20 22 -17
41 -20 122 -20 87 0 103 3 174 34 82 36 102 37 112 5 7 -22 41 -43 56 -34 5 4
49 15 97 25 180 39 359 87 398 108 11 5 34 12 52 16 19 3 63 20 99 37 l64 31
41 -29 c85 -59 109 -67 206 -71 72 -3 112 1 177 17 79 21 201 76 236 107 25
23 46 17 52 -15 8 -37 25 -41 134 -29 136 14 480 14 663 0 162 -13 335 -39
435 -67 28 -8 68 -17 90 -21 22 -3 51 -13 64 -21 13 -8 47 -19 75 -23 66 -11
171 -47 292 -102 22 -10 45 -18 51 -18 6 0 24 -6 40 -14 15 -8 39 -19 53 -25
14 -6 32 -15 40 -20 50 -31 124 -61 150 -61 27 0 30 -3 30 -34 0 -37 23 -58
80 -73 24 -6 35 -17 44 -41 6 -17 34 -56 62 -84 59 -62 126 -148 171 -222 51
-83 107 -196 100 -202 -13 -14 -53 7 -65 33 -27 59 -127 214 -163 253 -13 14
-44 50 -69 80 -103 124 -261 250 -402 322 -32 16 -60 33 -63 38 -4 6 -17 10
-29 10 -13 0 -35 9 -49 20 -14 11 -31 20 -39 20 -16 0 -166 52 -195 68 -12 7
-37 12 -55 12 -18 1 -51 9 -73 20 -22 11 -55 19 -74 20 -18 0 -59 6 -90 14
-31 8 -83 17 -116 21 -33 4 -112 14 -175 23 -166 24 -666 23 -840 -2 -162 -23
-379 -62 -455 -82 -85 -23 -193 -54 -240 -70 -22 -7 -58 -18 -80 -23 -22 -5
-78 -24 -125 -41 -47 -17 -101 -35 -120 -40 -41 -10 -116 -35 -180 -61 -47
-18 -240 -80 -370 -118 -41 -12 -96 -29 -122 -37 -62 -19 -252 -54 -296 -54
-64 0 -192 49 -257 98 -49 36 -125 115 -125 129 0 7 -4 13 -8 13 -14 0 -62
114 -82 195 -48 195 -8 396 123 616 48 79 159 210 224 261 74 60 199 134 242
144 14 4 31 10 36 15 35 27 321 81 495 93 87 6 292 -3 460 -19z m-30 -374 c10
-20 1 -93 -18 -142 -10 -24 -45 -172 -57 -239 -4 -19 -13 -53 -20 -75 -8 -22
-16 -57 -20 -77 -5 -32 -11 -39 -38 -46 -43 -12 -71 2 -63 31 4 12 13 55 21
95 8 40 17 77 20 81 3 5 12 40 19 78 8 37 19 86 25 108 5 22 14 67 20 99 14
77 33 106 71 106 19 0 33 -7 40 -19z m815 -12 c104 -55 138 -136 102 -241 -60
-173 -302 -328 -513 -328 -85 0 -135 21 -183 76 -60 68 -59 167 4 276 29 52
122 142 170 164 17 8 37 18 45 23 63 37 119 49 225 50 94 1 116 -2 150 -20z
m-596 -8 c24 -5 48 -14 53 -19 5 -5 -17 -36 -57 -77 -39 -41 -78 -95 -97 -134
-30 -60 -33 -75 -33 -161 l0 -95 -37 -9 c-21 -5 -41 -6 -45 -3 -11 11 -3 107
12 142 7 19 17 56 21 82 3 26 12 62 19 79 7 17 16 51 20 75 15 97 46 146 85
134 8 -2 35 -9 59 -14z m-766 -11 c21 -6 55 -29 77 -51 117 -121 50 -349 -145
-494 -22 -16 -42 -32 -45 -35 -15 -17 -93 -55 -149 -72 -134 -41 -241 -8 -304
95 -26 42 -30 58 -30 125 0 54 4 85 15 102 9 14 19 36 23 49 12 41 122 177
163 202 20 13 55 34 77 48 77 47 215 60 318 31z m1672 -65 c79 -25 173 -54
265 -80 104 -30 175 -53 215 -71 17 -7 48 -18 70 -23 22 -5 65 -19 95 -31 30
-12 73 -29 95 -36 22 -8 58 -23 80 -34 22 -11 67 -31 100 -46 124 -54 191 -85
220 -100 69 -37 132 -72 165 -92 76 -47 124 -100 60 -67 -16 8 -42 15 -58 15
-15 0 -33 5 -39 11 -10 10 -117 42 -208 61 -27 6 -68 16 -90 24 -22 7 -71 16
-110 20 -38 3 -92 12 -120 20 -45 12 -187 24 -490 41 -55 3 -196 0 -313 -7
-117 -7 -215 -10 -218 -7 -4 3 13 26 37 50 24 24 60 65 79 90 36 48 54 57 63
33 4 -9 36 -15 109 -20 192 -13 399 -45 588 -92 36 -9 86 -20 113 -25 26 -4
62 -13 81 -20 41 -15 83 -5 91 21 9 28 -2 40 -36 40 -17 0 -42 6 -57 14 -15 7
-52 17 -82 21 -30 4 -67 14 -82 21 -15 8 -44 14 -65 14 -21 1 -56 7 -78 15
-22 8 -85 20 -140 25 -55 6 -122 16 -149 22 -26 6 -103 13 -170 17 l-121 6 0
90 c0 50 2 94 4 98 4 10 21 6 96 -18z"/>
<path d="M4895 7740 c-16 -5 -50 -14 -74 -20 -105 -26 -215 -130 -245 -232
-18 -61 -18 -62 3 -104 12 -26 37 -54 62 -71 38 -25 50 -27 130 -27 100 1 147
17 254 87 99 65 152 174 126 255 -16 48 -52 77 -128 103 -60 20 -81 22 -128 9z
m113 -87 c41 -26 52 -43 52 -88 0 -42 -34 -105 -73 -135 -68 -51 -120 -70
-194 -70 -69 0 -77 2 -104 29 -52 53 -37 115 45 195 81 78 208 110 274 69z"/>
<path d="M4804 7544 c-20 -19 -24 -31 -19 -52 8 -33 21 -42 63 -42 48 0 92 36
92 76 0 36 -12 44 -71 44 -29 0 -47 -7 -65 -26z"/>
<path d="M3517 7689 c-150 -48 -261 -186 -262 -324 0 -50 5 -69 28 -103 15
-23 45 -51 67 -62 47 -24 125 -26 172 -6 18 8 44 17 58 20 29 7 168 120 177
144 4 9 14 27 23 39 9 11 22 46 30 76 25 108 -23 190 -129 221 -67 20 -90 19
-164 -5z m136 -73 c55 -23 72 -51 72 -115 -1 -43 -6 -65 -25 -91 -53 -76 -106
-115 -198 -145 -51 -16 -56 -16 -94 1 -40 18 -78 72 -78 112 0 43 42 112 103
169 84 78 150 99 220 69z"/>
<path d="M3484 7485 c-40 -42 -41 -53 -13 -89 24 -31 52 -33 96 -6 62 37 52
122 -15 128 -27 3 -40 -3 -68 -33z"/>
<path d="M5207 6635 c-31 -28 -40 -81 -16 -96 28 -18 68 -9 104 22 40 36 43
51 15 79 -27 27 -69 25 -103 -5z"/>
<path d="M6458 6504 c-36 -19 -48 -62 -23 -81 24 -17 37 -16 80 1 29 12 35 20
35 44 0 21 -7 32 -25 40 -32 15 -34 15 -67 -4z"/>
<path d="M6270 6463 c-23 -8 -60 -45 -60 -60 0 -7 11 -20 25 -29 24 -16 28
-16 65 1 43 20 60 50 39 70 -18 16 -50 25 -69 18z"/>
<path d="M6554 6386 c-57 -25 -47 -89 14 -89 55 0 93 58 60 91 -15 15 -35 15
-74 -2z"/>
<path d="M6335 6342 c-45 -31 -55 -64 -29 -93 41 -45 134 -5 134 58 0 35 -22
63 -48 63 -9 -1 -35 -13 -57 -28z"/>
<path d="M6125 6274 c-14 -15 -25 -32 -25 -39 0 -17 33 -45 53 -45 22 0 77 49
77 69 0 47 -67 56 -105 15z"/>
<path d="M6420 6210 c-29 -29 -24 -72 11 -84 21 -7 33 -4 58 14 26 18 32 28
29 54 -3 28 -7 31 -40 34 -27 2 -43 -3 -58 -18z"/>
<path d="M6228 6157 c-31 -25 -36 -58 -12 -77 34 -29 121 40 98 78 -16 25 -55
25 -86 -1z"/>
<path d="M7068 5676 c-87 -38 -73 -139 17 -122 39 8 63 32 71 72 9 46 -37 73
-88 50z"/>
<path d="M15170 5300 c0 -6 -26 -29 -57 -53 -32 -23 -73 -55 -90 -71 -18 -16
-44 -36 -57 -45 -13 -9 -88 -64 -167 -123 -79 -59 -159 -118 -177 -130 -18
-13 -39 -28 -45 -33 -7 -6 -37 -27 -67 -48 -30 -20 -73 -49 -95 -65 -22 -15
-69 -49 -105 -74 -35 -25 -72 -56 -82 -69 -27 -36 -40 -121 -27 -177 5 -25 12
-123 14 -217 6 -232 15 -355 26 -355 6 0 9 119 8 294 -1 261 1 299 17 331 19
40 88 101 209 186 42 30 94 68 115 84 21 17 67 52 102 78 322 243 433 343 481
436 32 62 31 61 12 61 -8 0 -15 -5 -15 -10z"/>
<path d="M15039 4978 c-63 -50 -116 -94 -119 -98 -7 -9 -139 -108 -308 -232
-250 -183 -274 -201 -283 -226 -14 -36 -11 -88 6 -102 13 -11 19 -9 38 7 12
11 29 24 39 29 9 5 35 25 58 44 122 103 194 157 247 184 17 8 35 26 38 38 12
38 36 58 70 58 25 0 37 7 51 28 10 15 33 41 52 57 97 84 157 144 181 179 14
21 34 50 43 65 19 28 24 61 9 61 -4 0 -60 -41 -122 -92z"/>
<path d="M3078 4913 c7 -3 16 -2 19 1 4 3 -2 6 -13 5 -11 0 -14 -3 -6 -6z"/>
<path d="M15100 4804 c-30 -29 -44 -42 -128 -116 -36 -31 -78 -59 -94 -62 -19
-4 -28 -12 -28 -25 0 -29 -59 -93 -81 -88 -11 3 -35 -12 -67 -42 -55 -52 -222
-181 -292 -225 -25 -16 -53 -38 -62 -49 -19 -21 -23 -63 -9 -86 11 -17 38 -3
96 46 46 40 281 227 328 261 17 13 39 31 48 40 9 9 64 61 122 115 94 88 186
196 203 241 9 22 -7 18 -36 -10z"/>
<path d="M15065 4576 c-17 -17 -51 -48 -75 -70 -25 -21 -79 -69 -120 -106 -41
-37 -100 -87 -131 -111 -31 -24 -94 -74 -140 -112 -124 -100 -122 -98 -193
-147 -65 -45 -66 -45 -66 -92 0 -27 4 -48 8 -48 12 0 119 77 157 112 17 15 33
28 36 28 3 0 21 14 40 31 19 17 45 38 59 47 32 21 55 41 215 189 154 142 151
139 209 226 61 92 62 116 1 53z"/>
<path d="M13945 4403 c-22 -14 -42 -30 -45 -33 -3 -4 -18 -15 -35 -24 -16 -9
-42 -24 -56 -34 -14 -9 -47 -30 -73 -47 -27 -16 -61 -40 -76 -52 -15 -13 -34
-23 -42 -23 -8 0 -23 -9 -33 -20 -10 -11 -22 -20 -27 -20 -4 0 -31 -16 -59
-35 -27 -20 -62 -40 -76 -46 -14 -5 -42 -22 -62 -38 -20 -15 -61 -42 -91 -60
-30 -17 -66 -40 -80 -50 -25 -19 -76 -51 -230 -146 -256 -157 -276 -172 -289
-206 -13 -36 7 -629 24 -694 9 -38 17 -50 31 -50 18 0 19 8 16 105 -1 58 -7
132 -12 165 -6 33 -10 121 -10 195 0 189 16 216 182 315 79 46 197 123 212
137 11 10 23 18 27 18 5 0 30 15 56 32 26 18 60 40 75 48 78 44 99 57 163 98
39 24 86 54 105 66 19 13 89 58 155 102 183 120 224 144 248 144 7 0 26 -14
43 -31 l29 -30 5 -232 c6 -232 12 -276 34 -258 12 10 5 355 -12 594 -11 148
-22 161 -97 110z"/>
<path d="M13867 4117 c-21 -12 -115 -71 -210 -131 -95 -60 -198 -125 -230
-145 -33 -20 -71 -46 -87 -58 -15 -13 -33 -23 -39 -23 -6 0 -19 -8 -29 -17 -9
-10 -28 -24 -42 -31 -33 -17 -54 -30 -120 -73 -30 -20 -83 -54 -118 -75 -148
-92 -182 -115 -192 -133 -14 -27 -13 -84 3 -105 11 -15 17 -16 40 -5 15 7 27
16 27 20 0 4 10 11 23 14 12 4 51 26 87 50 169 111 267 168 293 169 23 1 33
10 55 51 25 45 30 50 62 50 l35 0 3 -52 c3 -45 -1 -56 -22 -78 -30 -30 -52
-32 -66 -5 -15 29 -27 25 -45 -14 -12 -25 -38 -47 -88 -78 -40 -24 -80 -46
-89 -50 -10 -4 -18 -12 -18 -17 0 -5 -13 -14 -30 -19 -16 -6 -51 -27 -76 -46
-26 -20 -52 -36 -59 -36 -7 0 -18 -7 -26 -16 -7 -8 -35 -27 -62 -41 l-49 -25
5 -44 c2 -25 7 -47 9 -50 9 -8 72 23 155 78 45 29 112 71 149 93 36 22 78 49
93 60 14 12 39 26 54 33 16 7 61 33 100 60 86 56 95 62 138 86 19 10 54 34 78
53 24 18 48 33 54 33 6 0 17 7 26 16 22 21 169 121 206 139 61 30 78 50 77 91
-2 57 -14 61 -75 20 -30 -20 -56 -36 -59 -36 -3 0 -56 -34 -117 -75 -62 -41
-116 -75 -120 -75 -4 0 -16 -9 -26 -20 -32 -36 -85 -22 -85 21 0 10 71 79 81
79 3 0 83 51 178 114 94 63 180 117 190 121 14 4 20 17 23 50 4 50 -3 87 -17
92 -6 1 -27 -7 -48 -20z"/>
<path d="M4750 3956 c0 -19 27 -28 33 -11 7 15 -1 25 -20 25 -7 0 -13 -6 -13
-14z"/>
<path d="M4770 3905 c-15 -18 -5 -35 20 -35 10 0 22 5 25 10 7 11 -12 40 -25
40 -4 0 -13 -7 -20 -15z"/>
<path d="M13885 3668 c-33 -25 -155 -108 -160 -108 -2 0 -25 -15 -51 -32 -25
-18 -53 -37 -62 -43 -8 -5 -40 -27 -70 -47 -31 -21 -59 -38 -63 -38 -4 0 -59
-34 -121 -76 -62 -42 -120 -79 -128 -82 -8 -3 -40 -23 -70 -44 -30 -21 -58
-38 -63 -38 -4 0 -29 -15 -55 -33 -43 -30 -69 -47 -181 -113 -33 -20 -36 -25
-34 -64 2 -47 14 -66 35 -57 25 12 182 110 325 204 62 40 114 73 117 73 2 0
40 24 83 52 43 29 90 60 104 68 15 8 47 28 70 44 24 16 96 63 159 104 241 156
246 161 236 218 -8 41 -30 45 -71 12z"/>
<path d="M12365 3414 c-84 -47 -126 -72 -156 -92 -15 -9 -53 -32 -85 -51 -33
-19 -82 -49 -110 -67 -29 -19 -63 -39 -75 -44 -13 -6 -41 -21 -61 -33 -20 -12
-106 -62 -190 -110 -84 -48 -160 -92 -168 -98 -8 -5 -33 -18 -55 -29 -22 -11
-53 -29 -70 -40 -16 -11 -41 -25 -55 -32 -26 -12 -223 -122 -250 -139 -8 -5
-28 -16 -45 -23 -33 -16 -76 -58 -94 -93 -15 -29 -14 -97 3 -256 8 -73 17
-215 21 -317 3 -101 8 -187 11 -189 3 -3 17 2 32 11 24 15 27 24 30 75 2 32
-1 76 -7 98 -5 22 -13 126 -17 232 l-7 191 27 45 c27 46 100 117 121 117 7 0
23 8 36 19 13 10 47 32 76 47 28 16 97 56 153 89 119 71 189 111 210 121 8 5
30 18 48 30 18 12 52 32 75 44 23 12 58 32 79 44 88 52 168 100 233 141 39 24
95 58 125 76 30 18 62 38 70 45 9 7 32 20 51 28 31 13 39 13 68 -1 18 -9 36
-26 41 -38 4 -12 10 -75 13 -141 3 -65 12 -173 21 -239 8 -66 16 -130 16 -142
0 -31 26 -29 34 3 7 26 0 267 -10 363 -3 30 -7 77 -9 105 -9 170 -19 263 -28
274 -15 18 -36 14 -102 -24z"/>
<path d="M12285 3136 c-22 -12 -60 -35 -85 -51 -25 -16 -54 -34 -65 -40 -50
-28 -71 -41 -90 -56 -11 -9 -45 -30 -75 -46 -30 -17 -69 -39 -87 -49 -115 -70
-204 -122 -243 -143 -47 -25 -314 -175 -340 -191 -64 -39 -121 -70 -129 -70
-5 0 -23 -16 -40 -35 -27 -31 -31 -43 -31 -95 0 -64 8 -72 45 -46 11 7 31 17
45 21 14 4 48 22 75 40 28 18 77 47 110 65 33 18 92 52 130 76 122 76 145 79
145 20 0 -36 -29 -68 -73 -82 -12 -3 -29 -12 -37 -19 -8 -7 -39 -26 -67 -41
-29 -16 -74 -41 -100 -56 -27 -15 -61 -34 -78 -42 -16 -9 -52 -29 -80 -45 -27
-16 -60 -30 -72 -30 -20 -1 -23 -6 -23 -45 0 -24 3 -51 6 -60 7 -19 57 -21 72
-3 6 6 39 27 74 46 35 18 80 43 100 55 132 76 215 123 228 129 8 4 32 17 52
30 20 12 66 40 103 62 37 22 83 50 103 62 21 12 44 25 52 29 8 4 41 25 72 46
31 21 61 38 66 38 5 0 29 15 53 33 24 18 58 42 76 53 18 10 64 38 103 62 39
24 75 40 80 37 25 -15 31 97 7 121 -6 6 -52 -18 -158 -84 -124 -78 -199 -123
-241 -143 -20 -11 -40 -23 -43 -29 -9 -15 -51 -12 -65 5 -11 13 -10 21 7 43
22 30 121 102 140 102 6 0 19 8 29 17 18 18 40 33 84 55 25 13 34 19 137 85
28 18 66 36 83 40 l31 6 -7 66 c-3 36 -8 69 -11 74 -7 11 -25 7 -68 -17z
m-481 -462 c15 -38 6 -95 -19 -119 -26 -27 -46 -31 -76 -15 -47 26 4 150 61
150 16 0 30 -7 34 -16z"/>
<path d="M6547 2933 c-13 -13 -7 -45 15 -76 36 -53 60 -61 78 -27 23 44 -60
136 -93 103z"/>
<path d="M12365 2709 c-4 -5 -17 -15 -28 -20 -28 -13 -155 -90 -287 -174 -19
-13 -55 -33 -80 -46 -25 -13 -47 -27 -50 -30 -3 -4 -19 -15 -37 -25 -36 -22
-291 -171 -313 -184 -20 -11 -191 -109 -210 -120 -8 -4 -26 -13 -40 -19 -14
-6 -43 -22 -65 -36 -22 -14 -51 -30 -65 -36 -56 -23 -71 -60 -54 -127 8 -28 9
-28 109 26 44 24 108 58 143 77 34 18 70 39 78 46 8 7 42 26 74 43 32 17 99
55 149 84 50 28 94 52 97 52 3 0 23 13 43 28 20 16 70 48 111 71 144 81 424
265 449 294 8 11 10 30 6 61 -7 45 -17 57 -30 35z"/>
<path d="M10550 2146 c-19 -7 -70 -29 -114 -49 -43 -20 -84 -37 -90 -37 -6 0
-24 -9 -41 -20 -16 -11 -37 -20 -46 -20 -9 0 -22 -7 -29 -15 -7 -8 -28 -17
-49 -21 -20 -4 -52 -15 -71 -25 -19 -11 -42 -19 -50 -19 -8 0 -59 -18 -113
-40 -53 -22 -104 -40 -113 -40 -9 0 -28 -7 -42 -15 -15 -8 -94 -36 -177 -63
-82 -28 -161 -54 -175 -60 -53 -22 -255 -78 -350 -96 -66 -12 -114 -36 -123
-61 -3 -7 -7 -122 -8 -255 -2 -226 -1 -244 16 -256 22 -16 48 -18 73 -4 9 5
49 14 87 19 39 5 88 15 110 21 22 7 63 17 90 24 28 6 59 16 70 22 11 6 40 14
65 18 48 7 155 39 208 62 18 8 38 14 45 14 7 0 30 9 52 20 22 11 49 20 61 20
12 0 27 6 33 14 6 7 28 16 48 19 33 6 68 20 155 64 14 7 32 13 39 13 8 0 36
11 64 24 27 13 79 36 115 51 194 81 311 138 326 159 19 28 19 105 -1 113 -9 3
-23 -1 -33 -8 -26 -22 -79 -49 -94 -49 -7 0 -24 -9 -38 -20 -14 -11 -31 -20
-38 -20 -13 0 -104 -39 -154 -66 -14 -8 -34 -14 -43 -14 -10 0 -34 -8 -54 -19
-20 -10 -61 -29 -91 -41 -30 -12 -73 -31 -96 -41 -23 -11 -50 -19 -60 -19 -10
-1 -37 -9 -59 -20 -22 -11 -47 -20 -55 -20 -8 0 -28 -7 -43 -15 -15 -8 -45
-17 -65 -20 -20 -4 -53 -12 -72 -20 -19 -7 -62 -20 -95 -28 -33 -9 -148 -39
-255 -67 -198 -52 -262 -59 -268 -29 -5 25 22 46 70 53 44 7 99 21 288 77 58
17 128 37 155 44 28 8 70 21 95 29 25 8 109 36 187 61 79 25 155 53 170 60 16
8 33 15 39 15 13 0 95 33 134 54 14 8 39 17 57 20 17 4 37 14 44 22 6 8 18 14
26 14 14 0 114 42 143 61 8 5 22 12 30 15 8 4 38 17 67 30 35 16 61 22 82 18
28 -6 30 -4 37 31 7 37 1 112 -11 123 -3 3 -14 1 -23 -6 -9 -7 -31 -19 -49
-27 -17 -8 -34 -19 -38 -25 -3 -5 -13 -10 -22 -10 -16 0 -101 -36 -155 -65
-14 -8 -32 -15 -40 -15 -7 0 -26 -7 -43 -16 -40 -21 -143 -61 -178 -70 -15 -3
-30 -10 -33 -15 -10 -18 -42 -9 -47 13 -9 34 17 65 70 81 76 24 156 56 167 67
5 5 17 10 25 10 8 0 51 17 95 39 201 96 217 103 241 97 21 -5 25 -2 35 34 13
50 1 124 -20 126 -8 1 -31 -3 -50 -10z m-652 -418 c23 -23 14 -82 -15 -110
-41 -37 -65 -42 -96 -17 -37 28 -34 56 10 101 38 39 78 49 101 26z m-220 -97
c21 -13 10 -54 -18 -67 -14 -7 -65 -24 -115 -39 -49 -15 -138 -42 -196 -61
-58 -19 -115 -34 -126 -34 -11 0 -36 -6 -54 -14 -19 -8 -62 -17 -96 -21 -62
-7 -63 -7 -63 18 0 33 15 44 75 52 28 4 61 13 75 20 14 7 48 16 75 19 28 4 59
13 70 20 11 8 36 17 55 21 40 8 174 52 199 65 13 6 54 18 101 29 3 0 11 -3 18
-8z"/>
<path d="M10866 2114 c-8 -20 -8 -318 0 -338 17 -45 24 1 24 163 0 163 -7 218
-24 175z"/>
<path d="M8684 906 c-11 -28 0 -61 21 -61 16 0 20 7 20 35 0 25 -5 36 -18 38
-9 2 -20 -3 -23 -12z"/>
<path d="M8972 814 c4 -21 22 -23 26 -1 2 10 -3 17 -13 17 -10 0 -15 -6 -13
-16z"/>
<path d="M9050 815 c0 -9 5 -15 11 -13 6 2 11 8 11 13 0 5 -5 11 -11 13 -6 2
-11 -4 -11 -13z"/>
<path d="M8638 795 c-22 -49 25 -98 60 -63 26 26 3 88 -32 88 -9 0 -22 -11
-28 -25z"/>
<path d="M8737 783 c-12 -11 -8 -23 8 -23 8 0 15 7 15 15 0 16 -12 20 -23 8z"/>
</g>
</svg>
