<svg width="80" height="80" viewBox="0 0 80 80" fill="none" xmlns="http://www.w3.org/2000/svg">
<path d="M0 0V80H80V0H0ZM17.5 70C16.0166 70 14.5666 69.5601 13.3332 68.736C12.0999 67.9119 11.1386 66.7406 10.5709 65.3701C10.0033 63.9997 9.85472 62.4917 10.1441 61.0368C10.4335 59.582 11.1478 58.2456 12.1967 57.1967C13.2456 56.1478 14.582 55.4335 16.0368 55.1441C17.4917 54.8547 18.9997 55.0032 20.3701 55.5709C21.7406 56.1386 22.9119 57.0999 23.736 58.3332C24.5601 59.5666 25 61.0166 25 62.5C25 64.4891 24.2098 66.3968 22.8033 67.8033C21.3968 69.2098 19.4891 70 17.5 70ZM55 40H50V33.5375L33.5375 50H40V55H25V40H30V46.4625L46.4625 30H40V25H55V40ZM62.5 25C61.0166 25 59.5666 24.5601 58.3332 23.736C57.0999 22.9119 56.1386 21.7406 55.5709 20.3701C55.0033 18.9997 54.8547 17.4917 55.1441 16.0368C55.4335 14.582 56.1478 13.2456 57.1967 12.1967C58.2456 11.1478 59.582 10.4335 61.0368 10.1441C62.4917 9.85472 63.9997 10.0032 65.3701 10.5709C66.7406 11.1386 67.9119 12.0999 68.736 13.3332C69.5601 14.5666 70 16.0166 70 17.5C70 19.4891 69.2098 21.3968 67.8033 22.8033C66.3968 24.2098 64.4891 25 62.5 25Z" fill="#3CE289"/>
</svg>
